<svg version="1.1" id="Layer_1" xmlns="http://www.w3.org/2000/svg" xmlns:xlink="http://www.w3.org/1999/xlink" x="0px" y="0px"
	 width="100%" viewBox="0 0 1058 438" enable-background="new 0 0 1058 438" xml:space="preserve">
<path fill="#FEFEFE" opacity="1.000000" stroke="none" 
	d="
M674.000000,439.000000 
	C449.333344,439.000000 225.166672,439.000000 1.000000,439.000000 
	C1.000000,293.000000 1.000000,147.000000 1.000000,1.000000 
	C353.666656,1.000000 706.333313,1.000000 1059.000000,1.000000 
	C1059.000000,147.000000 1059.000000,293.000000 1059.000000,439.000000 
	C930.833313,439.000000 802.666687,439.000000 674.000000,439.000000 
M478.609253,380.913605 
	C479.120605,380.300568 479.631927,379.687531 480.739960,378.689087 
	C484.173218,371.979889 482.803589,365.871826 477.190582,365.268433 
	C473.563660,364.878540 469.722595,366.480499 465.408051,367.109070 
	C465.199829,367.424011 464.991638,367.738983 463.863007,368.800781 
	C463.642761,369.507233 463.422546,370.213654 463.023010,371.283417 
	C461.231689,377.911682 462.834442,382.176819 468.021759,382.775421 
	C471.068024,383.126923 474.292267,381.936005 477.806976,381.365234 
	C477.806976,381.365234 478.015015,381.049835 478.609253,380.913605 
M636.643127,381.861847 
	C638.095520,380.241272 639.547913,378.620697 641.504395,376.355560 
	C642.992920,370.015167 641.507385,366.666687 636.594421,365.288300 
	C629.731079,363.362701 623.741211,366.925507 621.694397,374.788300 
	C621.972534,380.795593 624.006775,382.701233 630.832397,383.151184 
	C630.832397,383.151184 631.166565,383.151642 631.166565,383.151642 
	C631.166565,383.151642 631.485596,383.052277 632.269592,383.005554 
	C633.504028,382.641205 634.738403,382.276855 636.643127,381.861847 
M947.704407,364.718933 
	C943.123352,362.953186 940.008545,364.627472 937.437805,369.325500 
	C935.410217,372.650482 934.341187,376.231323 936.901611,379.556427 
	C938.011169,380.997284 940.315918,381.517792 942.157654,382.498871 
	C940.481445,379.320862 939.165710,376.826477 937.850098,374.332062 
	C940.313110,373.588379 942.735168,372.602203 945.251953,372.176575 
	C947.318848,371.827026 949.474060,372.116974 949.264038,368.807220 
	C948.881165,367.672150 948.498291,366.537079 947.704407,364.718933 
M813.037231,376.678741 
	C814.944702,378.739532 816.778320,380.881714 818.850769,382.760620 
	C819.117065,383.002014 820.623230,381.875824 821.023926,381.663971 
	C818.706787,379.103485 816.851013,377.052795 815.103638,374.242737 
	C815.037170,373.480194 814.970703,372.717651 815.191528,371.209686 
	C815.109863,366.606995 818.993896,368.918365 821.729065,367.956818 
	C822.491089,367.927399 823.253052,367.898010 824.842957,368.074738 
	C825.539612,368.912628 826.732178,369.693085 826.837097,370.599548 
	C827.118103,373.026306 826.932922,375.507080 826.932922,376.784698 
	C829.252625,378.507690 830.581665,379.609222 832.029846,380.521576 
	C832.739746,380.968781 833.670776,381.064819 834.041321,381.178528 
	C833.782776,381.051910 832.732971,380.891235 832.473328,380.350830 
	C831.208679,377.719086 829.730835,375.063171 829.218750,372.253510 
	C828.986633,370.980072 830.819580,369.330322 831.715759,367.851318 
	C831.838928,367.926880 831.962036,368.002472 832.085205,368.078033 
	C832.092896,367.957458 832.100586,367.836884 832.063110,368.423889 
	C827.622498,364.486908 828.287537,360.371552 829.997803,355.868927 
	C828.609558,357.961548 828.004883,360.235016 826.988953,362.306763 
	C826.294189,363.723602 825.025940,364.859283 823.247864,365.987579 
	C822.487854,366.141968 821.727905,366.296387 820.156006,366.119812 
	C818.758240,365.969635 817.360474,365.819489 815.648682,365.635559 
	C815.996216,361.889862 816.297058,358.647278 816.597900,355.404694 
	C816.042603,355.305328 815.487244,355.205933 814.931946,355.106567 
	C814.506287,356.757629 813.997742,358.392670 813.674500,360.063538 
	C813.192871,362.553009 813.679443,365.572906 809.376648,365.998840 
	C809.029480,366.426666 808.682312,366.854492 808.335144,367.282349 
	C808.892883,367.481232 809.450562,367.680115 810.819763,368.095306 
	C811.593140,368.726837 812.366455,369.358337 812.916077,370.728821 
	C812.992432,372.471313 813.068726,374.213806 813.037231,376.678741 
M757.361877,370.038269 
	C754.786194,376.531708 755.407898,380.939087 760.070557,382.378632 
	C763.099121,383.313629 766.753723,382.220581 770.863098,382.045197 
	C774.683472,380.897858 776.833008,378.507629 776.489441,373.641327 
	C776.942383,369.141693 774.813660,366.391937 770.588074,365.244293 
	C766.090271,364.022675 760.175903,366.049835 758.330078,369.337555 
	C758.289246,369.410370 758.728271,369.752655 759.000000,369.999420 
	C759.000000,369.999420 758.956421,369.952393 758.571716,369.408142 
	C758.356812,369.464569 758.141968,369.520966 757.361877,370.038269 
M503.336853,366.158783 
	C502.034485,365.673676 500.732147,365.188568 499.274475,364.645599 
	C497.329224,367.067169 497.070007,378.811676 499.778381,382.941040 
	C500.280914,380.873291 500.231567,378.771118 500.292023,376.672119 
	C500.392853,373.171936 499.078339,369.030060 504.937256,367.528137 
	C508.590637,366.616089 509.812622,368.669434 509.907776,371.788361 
	C510.018738,375.424194 509.933716,379.065979 509.933716,382.705200 
	C510.334808,382.801117 510.735901,382.897064 511.136993,382.992981 
	C511.492828,381.348389 511.869324,379.707916 512.200073,378.058289 
	C512.869568,374.719482 513.514160,371.375732 514.918701,367.458313 
	C518.699158,367.427399 523.595825,366.067688 523.049500,372.456909 
	C522.725464,376.246063 521.300415,379.941040 520.186218,384.418152 
	C521.429626,383.853271 522.904968,383.626251 523.066589,383.038116 
	C524.154053,379.080994 525.544678,375.056732 525.610352,371.034210 
	C525.642151,369.090088 523.241272,365.758698 521.533630,365.470032 
	C519.330994,365.097656 516.719360,367.144409 513.522644,367.886688 
	C510.459625,366.756317 507.868347,363.119629 503.336853,366.158783 
M907.241333,366.581451 
	C906.338806,365.811798 905.436279,365.042114 904.533752,364.272430 
	C904.037109,364.890411 903.122009,365.500000 903.109375,366.127716 
	C902.996948,371.723236 903.043884,377.321991 903.043884,382.919769 
	C903.719543,382.972992 904.395264,383.026215 905.070923,383.079407 
	C905.337341,381.544434 905.589478,380.006775 905.873047,378.474945 
	C906.600586,374.544678 907.342102,370.617004 908.862244,367.123688 
	C914.005066,366.561707 915.603882,369.260803 915.207275,373.917694 
	C914.957886,376.845520 914.853333,379.785645 914.683899,382.720276 
	C915.205139,382.807037 915.726379,382.893799 916.247620,382.980530 
	C916.641968,381.488403 917.131348,380.013855 917.410889,378.500519 
	C917.995850,375.334747 918.470215,372.148529 919.818665,368.865204 
	C922.152222,368.573822 925.955566,367.316650 926.525574,368.184052 
	C927.877563,370.241699 928.247253,373.363434 927.980530,375.948486 
	C927.711975,378.551392 926.194824,381.025482 925.057861,383.991241 
	C930.197815,384.036591 929.127075,379.869537 929.902405,377.698578 
	C931.262207,373.890564 932.743530,369.312622 928.871155,366.170288 
	C925.545044,363.471222 921.999023,365.412872 918.106201,367.639648 
	C914.755005,367.224518 911.403748,366.809357 907.241333,366.581451 
M690.329773,372.704895 
	C691.376099,373.157074 692.577942,373.416321 693.433228,374.105560 
	C694.800110,375.207092 695.936890,376.594116 697.170898,377.860474 
	C695.494629,378.826050 693.904846,380.025330 692.116272,380.687653 
	C690.512329,381.281647 688.689575,381.284882 686.849854,380.801636 
	C683.243591,378.662140 679.637329,376.522614 675.545410,374.094940 
	C678.343079,371.670807 680.783752,369.556030 683.224426,367.441254 
	C683.259644,367.584595 683.294922,367.727936 683.330139,367.871277 
	C679.845459,369.754700 676.360840,371.638153 673.033936,372.533875 
	C673.033936,366.189270 673.033936,359.844666 673.033936,353.096741 
	C672.236084,353.460846 670.977966,353.761780 670.974548,354.076233 
	C670.870483,363.695801 670.889587,373.316681 670.889587,382.937378 
	C671.515137,382.972809 672.140686,383.008240 672.766174,383.043671 
	C672.801392,380.849243 672.836609,378.654846 673.639343,376.158783 
	C676.743408,378.024719 679.764343,380.058868 682.999878,381.658997 
	C684.034546,382.170715 685.637756,381.532928 687.727966,380.974274 
	C690.137756,383.697754 693.338440,384.157013 696.056030,382.345490 
	C697.824341,381.166718 699.957520,377.940063 699.444031,376.544830 
	C698.684082,374.480438 695.755859,373.177460 693.671326,371.659515 
	C693.039490,371.199432 692.144714,371.100403 691.094055,370.021362 
	C693.414795,368.847046 695.735474,367.672699 698.686584,366.179352 
	C696.958191,363.678528 694.069641,364.841461 691.714905,365.782349 
	C688.750610,366.966797 687.170044,369.075165 690.329773,372.704895 
M540.034607,386.676117 
	C540.921326,386.197540 542.588257,385.699707 542.577026,385.243256 
	C542.422974,379.007050 542.659058,372.658478 541.505371,366.583221 
	C540.630859,361.977936 534.550171,361.616913 530.727417,365.984100 
	C534.711975,365.089417 538.706787,364.263824 539.910828,368.992920 
	C540.932373,373.005524 536.593323,371.562042 534.263367,373.067749 
	C530.258118,375.282715 528.375793,378.992767 530.334595,381.780762 
	C532.252014,384.509857 534.993652,384.456879 538.110168,382.139191 
	C538.476379,382.093445 538.842590,382.047668 539.021973,382.693848 
	C539.177246,383.830292 539.332458,384.966736 540.034607,386.676117 
M618.276062,375.215820 
	C618.173950,372.991882 618.883545,369.428650 617.823059,368.785919 
	C614.093323,366.525391 609.755432,365.268311 605.298035,363.490784 
	C604.611267,353.281952 604.611267,353.281952 602.445190,353.365509 
	C602.445190,363.160004 602.445190,372.936981 602.445190,383.128296 
	C604.125793,382.693176 605.816040,382.255524 608.339539,381.950928 
	C612.709473,381.778900 615.727173,379.448425 618.276062,375.215820 
M648.159607,367.065186 
	C647.210999,368.890930 646.262390,370.716644 645.314087,373.183350 
	C644.360840,381.488129 649.919434,385.176575 659.134338,381.620636 
	C660.751404,380.353424 662.368469,379.086212 664.288330,377.188904 
	C668.636292,371.050537 663.817078,364.079559 655.943787,365.029999 
	C653.545532,365.319550 651.230530,366.299255 648.159607,367.065186 
M816.804382,263.140442 
	C816.804382,263.140442 817.054382,263.132599 817.054382,263.132599 
	C817.054382,263.132599 816.769470,263.284363 817.052612,262.590454 
	C813.554382,258.903717 810.341064,254.884918 806.504150,251.592972 
	C795.275208,241.959015 782.979553,239.737335 769.537720,247.074158 
	C760.196289,252.172928 754.366150,260.901672 751.529053,270.089935 
	C748.971924,278.371643 743.420410,286.792847 748.678162,297.095642 
	C753.399170,306.346466 758.587769,313.949158 768.144958,318.413849 
	C774.820801,321.532501 781.709900,321.089233 788.675293,320.885071 
	C796.899292,320.644043 803.374268,317.481964 807.682617,310.159424 
	C809.780823,306.593170 812.513367,303.406494 814.760071,299.919983 
	C820.579651,290.888885 822.817261,281.192139 819.226624,270.767578 
	C818.446838,268.503693 816.545776,266.627777 815.247864,264.519775 
	C815.231628,264.493408 816.364990,263.759277 816.804382,263.140442 
M547.532532,315.024139 
	C548.118103,315.065552 548.703674,315.106964 549.736145,315.846252 
	C551.785522,316.565155 553.976196,318.151245 555.858582,317.844666 
	C562.191528,316.813416 568.778809,315.954865 574.591309,313.455017 
	C582.545227,310.034210 589.500916,307.932709 595.961609,315.859406 
	C596.870544,316.974609 599.814392,317.943604 600.644653,317.347748 
	C604.166870,314.819977 607.247131,311.676575 610.564148,308.690277 
	C598.553223,298.724213 597.576355,296.674377 598.090088,281.687805 
	C598.369873,273.525024 598.093872,265.612976 595.136963,257.715912 
	C588.119629,238.974304 581.036255,228.665680 559.805359,231.356201 
	C558.497620,231.521912 557.159973,231.458817 555.835999,231.488892 
	C541.464478,231.815506 531.291321,242.692612 531.935669,256.939972 
	C532.079956,260.130493 533.857910,260.510315 536.216003,259.598663 
	C538.678345,258.646729 541.001282,257.333954 544.106445,255.829437 
	C544.363892,254.916763 544.896606,253.021713 545.433167,251.127777 
	C546.813904,246.254257 550.131592,243.817062 555.065369,243.072174 
	C569.007568,240.967209 579.632202,249.656052 580.243164,262.833038 
	C573.220642,262.833038 566.135254,262.403625 559.120911,262.926819 
	C546.440308,263.872711 535.858215,274.105743 533.032227,287.427795 
	C530.632996,298.737762 535.717712,308.801849 547.532532,315.024139 
M138.238861,83.904694 
	C115.915504,75.201477 93.509377,74.634033 70.872040,82.838013 
	C41.253975,93.571869 21.666124,114.201469 11.694760,143.707428 
	C4.094096,166.198303 5.502553,188.761169 14.813364,210.593842 
	C22.702568,229.093002 34.941174,244.277939 52.586182,254.167313 
	C61.863823,259.367096 72.155090,262.758331 81.684731,267.701996 
	C77.920135,284.161652 77.931458,300.740570 81.350540,317.155365 
	C94.036469,378.059601 150.357574,419.040131 212.126434,412.059753 
	C253.365463,407.399414 283.958801,386.094482 304.373108,350.218262 
	C311.814392,337.140900 316.711243,323.048309 317.963745,307.131561 
	C318.159943,306.434204 318.356140,305.736816 318.750671,304.245087 
	C318.045288,292.339142 318.844879,280.111450 316.379730,268.581757 
	C304.292084,212.046997 256.696533,173.679672 199.011047,172.132462 
	C198.783508,169.221832 198.587402,166.308350 198.321548,163.401215 
	C197.842621,158.163956 197.321945,152.930542 197.746429,147.830841 
	C207.002655,147.706970 216.596558,149.133209 225.459167,147.202530 
	C275.350189,136.333893 298.432068,82.690910 271.840088,39.055996 
	C257.209625,15.048762 234.601547,3.663598 206.620743,5.333398 
	C178.826065,6.992091 158.577271,21.333561 146.013367,46.186504 
	C140.017471,58.047112 138.575256,70.883461 138.238861,83.904694 
M973.342102,233.990570 
	C969.526123,233.881409 965.660400,233.331650 961.904785,233.756317 
	C954.464172,234.597717 954.619446,234.831680 953.932312,242.557312 
	C953.676514,245.432526 953.611511,249.429977 951.816895,250.873672 
	C943.603638,257.480682 934.807739,263.363434 925.518127,270.009247 
	C925.054199,263.977997 924.491516,258.715607 924.275574,253.439056 
	C923.778870,241.302948 923.716064,229.143997 922.988708,217.023636 
	C922.033508,201.105667 920.905029,200.147293 905.631531,198.764328 
	C905.466675,198.749420 905.244629,198.615570 905.150696,198.681580 
	C904.031067,199.468170 902.113586,200.155518 901.965454,201.110840 
	C901.290344,205.464050 901.050842,209.890701 900.777161,214.298569 
	C900.535034,218.198380 902.039856,219.616272 906.207031,218.708923 
	C911.415710,217.574799 912.731628,218.743652 913.111877,224.001831 
	C914.812683,247.516129 916.399902,271.038666 918.128723,294.550873 
	C918.312195,297.045868 919.154114,299.492432 919.706970,302.037109 
	C917.871277,302.400757 915.251099,302.855652 912.662109,303.446777 
	C908.060974,304.497314 904.913086,309.896576 906.553223,314.273346 
	C906.962402,315.365295 908.391602,316.673096 909.489685,316.814819 
	C918.853516,318.023499 928.248840,318.989166 937.636963,320.007172 
	C937.933044,320.039276 938.253174,319.850433 938.807373,319.696411 
	C938.254761,318.843079 937.746826,318.058777 937.704834,317.993927 
	C938.615845,315.949982 939.858948,314.386017 939.939453,312.764343 
	C940.255676,306.392548 939.479370,305.784180 932.627747,304.016296 
	C930.964905,303.587250 928.261658,302.172729 928.245483,301.175751 
	C928.121460,293.485992 926.315735,285.578674 929.178955,280.086334 
	C935.068176,277.047852 939.397217,274.814362 944.113220,272.381226 
	C949.921326,287.632385 959.815552,300.539459 961.059570,316.850983 
	C961.304260,320.059723 962.993103,321.811249 966.582886,321.742676 
	C971.902649,321.641022 977.236572,321.824921 982.552002,322.115906 
	C985.759155,322.291504 986.820435,320.739441 986.471008,317.939697 
	C986.031555,314.418427 985.362244,310.925842 984.725769,307.013519 
	C980.498779,306.626190 976.080017,306.221283 972.473267,305.890808 
	C966.007751,292.461456 959.794678,279.556396 953.537903,266.560699 
	C954.532837,265.822449 955.176025,265.313721 955.850281,264.850006 
	C959.681641,262.214661 964.186340,260.174194 967.157410,256.787018 
	C969.787720,253.788239 972.029968,251.544510 976.071350,250.446823 
	C979.523743,249.509109 982.437805,246.563675 980.885132,242.198502 
	C980.177429,240.208801 978.480164,238.571030 976.887146,236.277573 
	C976.577881,236.552948 977.208374,235.991608 978.045898,235.245895 
	C976.653687,234.816406 975.410828,234.432983 973.342102,233.990570 
M350.418365,305.449890 
	C348.646820,304.761688 346.875305,304.073486 344.488068,303.146118 
	C346.622650,302.673676 348.157776,302.333923 349.692871,301.994171 
	C342.838562,301.211151 342.886078,296.495514 343.009705,291.613617 
	C343.098145,288.119629 342.726715,284.601410 343.002441,281.129089 
	C343.193787,278.719452 343.399658,275.658691 344.879822,274.124359 
	C349.573761,269.258698 354.359802,264.145477 360.045349,260.648163 
	C369.615601,254.761292 381.331055,261.916290 380.952942,273.183044 
	C380.704193,280.594971 379.462769,288.002808 378.253723,295.344604 
	C377.141296,302.099884 374.919891,308.708282 374.238037,315.487091 
	C373.715149,320.685272 376.808502,322.422882 381.926849,321.596436 
	C386.667480,320.830963 391.473541,320.207001 396.265686,320.078979 
	C406.159973,319.814697 408.828705,316.519073 406.547882,306.400970 
	C403.156158,306.245575 399.696503,306.087067 397.202362,305.972809 
	C397.202362,296.964569 397.608093,288.233521 397.074921,279.560211 
	C396.642822,272.530945 395.820221,265.355072 393.852448,258.630005 
	C390.742249,248.000839 374.897003,237.092026 361.624481,242.358932 
	C355.660339,244.725677 349.577728,246.793961 342.747925,249.290436 
	C342.747925,245.494293 342.747925,241.897537 342.747925,237.907593 
	C339.127808,237.907593 335.819733,237.907578 332.511658,237.907578 
	C329.070068,237.907578 325.628479,237.907593 321.888916,237.907593 
	C321.512177,238.735153 320.888580,239.909546 320.429108,241.144989 
	C316.425232,251.910645 318.732147,255.312485 330.588562,254.712936 
	C330.588562,269.874115 330.588562,285.005127 330.588562,300.666290 
	C329.670715,301.095306 327.943481,301.902618 326.269867,302.684875 
	C326.698364,306.182190 326.629822,309.464417 327.633087,312.377502 
	C328.240112,314.139984 330.410797,316.432892 332.048462,316.578339 
	C337.816284,317.090576 343.657379,316.777466 350.190247,316.777466 
	C350.437561,312.953247 350.657104,309.558105 350.418365,305.449890 
M699.366760,319.935699 
	C710.025513,318.873230 720.939148,318.762695 729.954468,311.629456 
	C732.319519,309.758179 734.488586,307.058228 737.180969,306.320648 
	C741.029846,305.266266 742.487671,302.656219 742.828125,299.642120 
	C743.305115,295.418732 743.404907,290.949890 742.545532,286.819153 
	C740.551147,277.233093 734.498413,270.347015 726.346313,265.197540 
	C725.064148,264.387634 723.780457,263.580261 722.086487,262.512756 
	C727.966614,257.609406 733.436584,253.572479 734.851013,245.878250 
	C736.580688,236.469666 729.839294,223.373886 720.432861,221.241714 
	C712.575928,219.460754 704.477600,218.387527 696.431580,217.897812 
	C688.318542,217.404037 680.137024,217.964050 671.988159,218.168503 
	C668.873718,218.246658 665.681824,218.277344 662.696167,219.018341 
	C661.421387,219.334717 659.653076,221.464355 659.719543,222.682114 
	C659.934570,226.619156 660.583435,230.610962 661.731750,234.378479 
	C662.167236,235.807022 664.285950,237.183655 665.893555,237.603439 
	C666.724304,237.820374 668.398010,236.076202 669.177856,234.882843 
	C670.045044,233.555679 670.328552,231.847107 670.933044,230.112564 
	C673.563293,230.322189 676.785400,229.252029 677.081787,233.635925 
	C678.121033,249.004211 679.234741,264.368073 680.148621,279.743805 
	C680.361023,283.317841 679.575684,286.953583 679.815002,290.523010 
	C680.214050,296.474548 681.069580,302.395477 681.741882,308.409546 
	C678.583435,309.209137 675.343994,309.867767 672.208313,310.855621 
	C665.007629,313.123993 664.375793,314.944824 668.086792,321.800323 
	C671.961792,321.039856 675.803345,319.794708 679.689392,319.635559 
	C685.912537,319.380676 692.165161,319.845734 699.366760,319.935699 
M418.106781,240.853867 
	C420.439301,240.833298 422.771790,240.796692 425.104309,240.795227 
	C431.401825,240.791245 432.966736,242.303192 432.949371,248.613129 
	C432.942047,251.271667 432.584045,253.927979 432.539764,256.587891 
	C432.276917,272.365448 432.098053,288.144470 431.802551,303.921326 
	C431.715698,308.558746 433.720428,311.573822 437.630554,314.079987 
	C444.243927,318.318787 451.436310,318.248322 458.790283,318.116913 
	C470.831299,317.901733 471.084564,317.669861 468.968170,305.932007 
	C468.920074,305.665344 468.641113,305.440308 468.389069,305.080566 
	C466.814484,305.080566 465.160156,305.064117 463.506317,305.084991 
	C461.674713,305.108093 459.843292,305.211121 458.012268,305.199738 
	C450.895569,305.155426 448.650513,303.622253 448.008331,296.405884 
	C446.963898,284.669830 446.672546,272.868622 445.856018,261.109314 
	C445.583984,257.191772 444.675934,253.318436 444.031616,249.254471 
	C444.923126,249.574036 445.721069,249.860062 446.256958,250.052139 
	C447.046082,247.404861 447.578339,242.863235 448.566681,242.761719 
	C454.017639,242.201797 459.587677,242.598679 465.100433,242.936432 
	C467.530090,243.085266 469.920837,243.869232 471.341003,244.161484 
	C472.021820,237.484726 472.594360,231.869385 473.296265,224.985474 
	C464.944336,224.439178 456.500092,223.886856 447.458496,223.295456 
	C448.596069,212.759735 449.678375,202.735748 450.852448,191.861847 
	C446.060974,191.861847 441.163757,191.861847 435.915039,191.861847 
	C435.562134,199.373474 435.350250,206.337189 434.877899,213.283203 
	C434.352844,221.003845 433.460632,223.485229 425.196381,223.160049 
	C413.378998,222.695084 413.359375,223.194077 411.184509,234.581146 
	C411.153229,234.744797 411.108398,234.906113 411.082550,235.070496 
	C410.368713,239.616470 412.570648,241.711166 418.106781,240.853867 
M825.192078,284.620483 
	C822.443054,289.995758 826.312134,294.237335 827.897339,298.712677 
	C831.059692,307.640381 837.104797,314.152618 845.843567,318.191559 
	C854.120239,322.016876 862.714966,321.654205 871.252869,320.173584 
	C874.832703,319.552765 879.146240,318.117310 881.353943,315.536316 
	C889.361023,306.175323 897.512390,296.527008 898.833313,283.580170 
	C899.428467,277.746704 900.179382,271.444946 894.652161,266.738037 
	C893.602600,265.844238 893.877136,263.395569 893.540710,261.664307 
	C893.989197,261.521179 894.437622,261.378082 894.886108,261.234955 
	C888.979492,253.325455 880.939880,248.086319 872.113770,244.119507 
	C869.257812,242.835968 865.632507,242.521515 862.457886,242.818802 
	C848.984802,244.080505 838.979309,250.874817 833.298767,263.188843 
	C830.219177,269.864807 828.095886,276.981903 825.192078,284.620483 
M850.539368,376.103577 
	C849.913269,373.127838 851.546387,372.229218 854.124573,372.221619 
	C857.202026,372.212585 860.279419,372.219513 863.356873,372.219513 
	C863.721924,371.636261 864.087036,371.052979 864.452087,370.469727 
	C862.842102,368.655609 861.562317,366.017212 859.548767,365.210785 
	C856.084473,363.823334 850.881348,367.089600 849.089661,371.028687 
	C847.445984,374.642548 847.313110,378.143494 850.706482,380.926453 
	C854.074463,383.688660 859.509583,383.921509 862.977295,381.179230 
	C858.512512,380.269684 853.281677,382.154175 850.539368,376.103577 
M563.250610,376.115692 
	C562.435913,378.891632 561.621216,381.667572 560.777283,384.543121 
	C563.961304,384.367615 566.489075,377.393066 565.788452,371.645599 
	C565.130432,366.248047 563.190491,365.580963 553.419922,367.429382 
	C553.158447,366.408112 552.896118,365.383575 552.633789,364.359070 
	C552.123779,364.331512 551.613831,364.303925 551.103821,364.276367 
	C548.729004,370.134583 551.221619,376.634766 550.063782,382.929993 
	C551.471313,382.236542 552.561401,381.243195 552.758606,380.096283 
	C553.031799,378.507111 552.620361,376.803284 552.525879,375.147217 
	C552.285278,370.928802 554.142944,368.360931 558.488403,368.305725 
	C563.278503,368.244812 563.511963,371.693146 563.250610,376.115692 
M843.224976,353.131622 
	C842.779053,352.156189 842.333130,351.180725 841.887207,350.205261 
	C841.202393,351.356110 839.944580,352.496735 839.923767,353.659393 
	C839.763855,362.615112 839.772583,371.576538 839.954285,380.531647 
	C839.973450,381.474518 841.449219,382.387848 843.065857,384.261200 
	C843.065857,377.711792 843.063477,373.085358 843.066528,368.458954 
	C843.069702,363.639038 843.078125,358.819153 843.224976,353.131622 
M879.585144,369.763153 
	C879.743713,374.283234 878.332886,379.419769 883.787292,381.992126 
	C884.890869,382.512604 886.512085,381.935547 887.894653,381.864502 
	C881.332520,377.659698 880.418335,375.417725 882.833008,368.473969 
	C884.709961,368.233765 886.607239,367.990906 888.504517,367.748077 
	C888.528381,367.412384 888.552307,367.076660 888.576233,366.740936 
	C886.598511,366.350647 884.620789,365.960358 882.229736,365.488495 
	C882.539124,362.030853 882.841187,358.654938 883.233948,354.265839 
	C877.872742,357.992004 883.632935,366.913300 875.003723,367.358582 
	C876.467041,367.883270 877.930420,368.407928 879.585144,369.763153 
M791.713623,369.492371 
	C791.713623,373.656250 791.713623,377.820099 791.713623,381.983978 
	C792.132324,382.134277 792.550964,382.284576 792.969666,382.434875 
	C793.404541,381.050079 794.206299,379.667480 794.214722,378.280090 
	C794.268677,369.381531 794.162598,360.481628 793.993103,351.584412 
	C793.989502,351.393066 792.603760,351.228027 791.713440,351.014984 
	C791.713440,357.035553 791.713440,362.763275 791.713623,369.492371 
M747.500305,380.672546 
	C745.784363,380.597351 744.068420,380.522186 742.352478,380.446991 
	C742.237183,381.009796 742.121887,381.572601 742.006592,382.135406 
	C743.891174,382.462585 746.246277,383.645233 747.554993,382.925415 
	C749.764465,381.710022 751.759277,379.518311 752.910767,377.260956 
	C753.356262,376.387482 751.591431,373.786957 750.238892,372.745758 
	C748.500305,371.407349 746.163269,370.846313 744.084045,369.950409 
	C744.213379,369.289703 744.342712,368.628998 744.472046,367.968292 
	C746.874146,367.794342 749.276306,367.620361 751.641541,367.449066 
	C751.046692,364.710938 747.600342,364.016479 744.299744,366.005829 
	C741.244629,367.847321 741.258118,371.357605 744.385742,373.096008 
	C745.390625,373.654541 746.565674,373.897491 747.629272,374.361694 
	C751.268494,375.949921 751.852783,377.934814 747.500305,380.672546 
M449.536896,366.846008 
	C446.651184,371.567810 449.907440,372.782074 453.465057,374.230713 
	C454.869629,374.802643 455.809540,376.515747 456.961029,377.709259 
	C455.397278,378.953613 453.952240,380.420319 452.218445,381.346375 
	C451.380554,381.793915 449.999939,381.225311 448.044312,381.038300 
	C452.228271,383.818390 456.330322,382.589386 457.880707,380.183746 
	C463.308197,371.762238 452.717957,373.149780 449.263062,368.270050 
	C452.861694,367.893433 455.365692,367.631378 457.802185,367.376373 
	C457.198212,364.250488 456.271454,364.104309 449.536896,366.846008 
M802.925781,363.631775 
	C802.502869,364.085754 801.718445,364.534607 801.711914,364.994446 
	C801.628845,370.880798 801.657104,376.768738 801.657104,382.656250 
	C802.032043,382.904297 802.406921,383.152374 802.781860,383.400421 
	C803.606384,382.504059 805.106079,381.633820 805.141907,380.706940 
	C805.325378,375.963898 805.216614,371.202454 805.003296,366.456726 
	C804.956299,365.410736 804.071350,364.402374 802.925781,363.631775 
M569.733826,367.444427 
	C572.571350,372.969025 575.408875,378.493652 578.685181,384.872589 
	C579.804077,382.062561 580.493774,380.330292 580.782593,379.604889 
	C578.754639,377.164642 576.975952,375.451080 575.736694,373.410004 
	C574.558167,371.468872 573.935303,369.188629 573.082886,367.051605 
	C572.144165,364.698517 571.039978,364.694305 569.733826,367.444427 
M893.024658,377.952271 
	C892.888794,379.515594 892.752930,381.078918 892.617065,382.642273 
	C893.164551,382.859161 893.711975,383.076080 894.259460,383.292969 
	C894.785095,382.179993 895.673157,381.092102 895.752319,379.948181 
	C895.874451,378.184570 895.315125,376.385651 895.272034,374.596252 
	C895.183472,370.920441 895.245422,367.241028 895.245422,363.563080 
	C893.747253,364.187317 892.844666,365.190155 892.818359,366.215485 
	C892.725586,369.831451 892.933228,373.455170 893.024658,377.952271 
z"/>
<path fill="#9179EE" opacity="1.000000" stroke="none" 
	d="
M317.727448,307.840668 
	C316.711243,323.048309 311.814392,337.140900 304.373108,350.218262 
	C283.958801,386.094482 253.365463,407.399414 212.126434,412.059753 
	C150.357574,419.040131 94.036469,378.059601 81.350540,317.155365 
	C77.931458,300.740570 77.920135,284.161652 82.256439,267.347534 
	C105.566933,271.564423 127.221954,268.407928 147.867645,257.924133 
	C152.531448,255.555908 157.165634,253.243286 156.619476,247.135437 
	C157.593048,265.747467 158.370316,283.989868 159.151840,302.332153 
	C156.511551,302.988831 154.432281,303.454803 152.382477,304.026398 
	C148.077408,305.226898 148.923416,308.866821 149.114838,311.826233 
	C149.220566,313.460907 150.588623,316.390076 151.396515,316.393127 
	C160.835037,316.429077 170.279602,316.102631 179.708878,315.610107 
	C180.759430,315.555267 182.459702,313.980042 182.592499,312.947144 
	C182.981537,309.921143 182.730972,306.812866 182.730972,303.620575 
	C181.576523,303.620575 181.092880,303.571808 180.621719,303.627869 
	C173.864120,304.432159 173.215927,304.132721 172.541107,297.748779 
	C172.035263,292.963440 172.166168,288.113159 171.934128,283.295624 
	C171.799942,280.509003 172.390869,277.750031 175.599365,277.974548 
	C180.859619,278.342682 187.205856,271.625244 191.064865,278.064362 
	C198.335968,290.196930 204.191330,303.178009 211.156723,316.828400 
	C218.894913,315.853394 228.306564,320.662048 237.699234,316.332275 
	C238.177933,307.587860 237.526627,306.687927 229.263885,305.835510 
	C225.164108,305.412567 221.551270,304.552551 218.996170,300.798401 
	C213.292557,292.418274 207.501419,284.088593 201.448898,275.959473 
	C199.042587,272.727631 200.072052,271.095032 202.922379,269.276428 
	C207.259109,266.509430 211.801346,263.932190 215.673233,260.597351 
	C222.956039,254.324814 226.409576,246.118286 224.398911,236.552414 
	C222.306931,226.599670 216.743256,218.913513 206.803680,215.372665 
	C201.668945,213.543472 196.282715,212.420242 191.150360,210.644440 
	C196.557404,198.418900 198.839844,185.906738 199.051941,172.964325 
	C256.696533,173.679672 304.292084,212.046997 316.379730,268.581757 
	C318.844879,280.111450 318.045288,292.339142 318.382080,304.397217 
	C314.380402,300.058380 310.836578,295.490875 307.078156,291.107391 
	C305.079742,288.776581 302.718475,288.201416 300.356354,290.917480 
	C298.070374,293.546051 294.362274,295.594086 297.100525,300.219635 
	C295.200287,302.042542 293.216278,303.824738 291.368713,305.738678 
	C281.979767,315.464783 267.751160,311.501923 261.700500,303.344330 
	C256.666382,296.557251 253.381363,289.336426 252.838882,280.700684 
	C252.558884,276.243500 253.412247,274.641846 258.000031,274.812805 
	C272.601471,275.356964 287.212036,275.671570 301.820831,275.996399 
	C307.092773,276.113617 310.189972,272.418213 309.522247,267.072174 
	C307.566223,251.411270 295.604767,239.562210 279.713257,237.602280 
	C276.213715,237.584076 272.503021,234.845871 269.743408,239.121475 
	C269.298645,239.775238 269.122223,240.316406 268.635315,240.910980 
	C265.972046,237.856659 263.111542,238.659958 260.331970,240.094223 
	C258.738556,240.916412 256.996704,241.853958 255.920685,243.213623 
	C245.000351,257.012787 239.699554,272.374268 243.056580,290.148163 
	C245.861282,304.997711 251.697037,316.651276 268.649506,319.647614 
	C281.479553,321.915283 292.630249,319.221130 302.677399,311.494995 
	C306.378723,308.648712 309.183777,307.420563 311.632019,312.979736 
	C313.974304,311.004944 315.850861,309.422821 317.727448,307.840668 
z"/>
<path fill="#8AC4FF" opacity="1.000000" stroke="none" 
	d="
M199.031494,172.548401 
	C198.839844,185.906738 196.557404,198.418900 190.725891,210.678619 
	C185.713333,210.578217 181.152527,210.581909 176.839737,209.549484 
	C165.865082,206.922287 155.464935,210.390457 144.973572,212.246597 
	C140.711075,213.000687 141.874878,217.555756 142.612701,220.411743 
	C142.927628,221.630737 145.911636,222.755249 147.736160,222.845673 
	C150.287689,222.972153 152.889145,222.091232 156.423187,221.474960 
	C156.423187,230.289398 156.423187,238.527618 156.423187,246.765839 
	C157.165634,253.243286 152.531448,255.555908 147.867645,257.924133 
	C127.221954,268.407928 105.566933,271.564423 82.408401,266.979675 
	C72.155090,262.758331 61.863823,259.367096 52.586182,254.167313 
	C34.941174,244.277939 22.702568,229.093002 14.813364,210.593842 
	C5.502553,188.761169 4.094096,166.198303 11.694760,143.707428 
	C21.666124,114.201469 41.253975,93.571869 70.872040,82.838013 
	C93.509377,74.634033 115.915504,75.201477 138.711365,84.339928 
	C140.440964,90.058296 141.173218,95.535599 143.043716,100.591820 
	C152.422958,125.945251 170.634537,141.422440 196.818710,147.695511 
	C197.321945,152.930542 197.842621,158.163956 198.321548,163.401215 
	C198.587402,166.308350 198.783508,169.221832 199.031494,172.548401 
z"/>
<path fill="#397298" opacity="1.000000" stroke="none" 
	d="
M197.282562,147.763184 
	C170.634537,141.422440 152.422958,125.945251 143.043716,100.591820 
	C141.173218,95.535599 140.440964,90.058296 139.079865,84.387711 
	C138.575256,70.883461 140.017471,58.047112 146.013367,46.186504 
	C158.577271,21.333561 178.826065,6.992091 206.620743,5.333398 
	C234.601547,3.663598 257.209625,15.048762 271.840088,39.055996 
	C298.432068,82.690910 275.350189,136.333893 225.459167,147.202530 
	C216.596558,149.133209 207.002655,147.706970 197.282562,147.763184 
z"/>
<path fill="#080809" opacity="1.000000" stroke="none" 
	d="
M973.755005,234.020081 
	C975.410828,234.432983 976.653687,234.816406 978.045898,235.245895 
	C977.208374,235.991608 976.577881,236.552948 976.887146,236.277573 
	C978.480164,238.571030 980.177429,240.208801 980.885132,242.198502 
	C982.437805,246.563675 979.523743,249.509109 976.071350,250.446823 
	C972.029968,251.544510 969.787720,253.788239 967.157410,256.787018 
	C964.186340,260.174194 959.681641,262.214661 955.850281,264.850006 
	C955.176025,265.313721 954.532837,265.822449 953.537903,266.560699 
	C959.794678,279.556396 966.007751,292.461456 972.473267,305.890808 
	C976.080017,306.221283 980.498779,306.626190 984.725769,307.013519 
	C985.362244,310.925842 986.031555,314.418427 986.471008,317.939697 
	C986.820435,320.739441 985.759155,322.291504 982.552002,322.115906 
	C977.236572,321.824921 971.902649,321.641022 966.582886,321.742676 
	C962.993103,321.811249 961.304260,320.059723 961.059570,316.850983 
	C959.815552,300.539459 949.921326,287.632385 944.113220,272.381226 
	C939.397217,274.814362 935.068176,277.047852 929.178955,280.086334 
	C926.315735,285.578674 928.121460,293.485992 928.245483,301.175751 
	C928.261658,302.172729 930.964905,303.587250 932.627747,304.016296 
	C939.479370,305.784180 940.255676,306.392548 939.939453,312.764343 
	C939.858948,314.386017 938.615845,315.949982 937.704834,317.993927 
	C937.746826,318.058777 938.254761,318.843079 938.807373,319.696411 
	C938.253174,319.850433 937.933044,320.039276 937.636963,320.007172 
	C928.248840,318.989166 918.853516,318.023499 909.489685,316.814819 
	C908.391602,316.673096 906.962402,315.365295 906.553223,314.273346 
	C904.913086,309.896576 908.060974,304.497314 912.662109,303.446777 
	C915.251099,302.855652 917.871277,302.400757 919.706970,302.037109 
	C919.154114,299.492432 918.312195,297.045868 918.128723,294.550873 
	C916.399902,271.038666 914.812683,247.516129 913.111877,224.001831 
	C912.731628,218.743652 911.415710,217.574799 906.207031,218.708923 
	C902.039856,219.616272 900.535034,218.198380 900.777161,214.298569 
	C901.050842,209.890701 901.290344,205.464050 901.965454,201.110840 
	C902.113586,200.155518 904.031067,199.468170 905.150696,198.681580 
	C905.244629,198.615570 905.466675,198.749420 905.631531,198.764328 
	C920.905029,200.147293 922.033508,201.105667 922.988708,217.023636 
	C923.716064,229.143997 923.778870,241.302948 924.275574,253.439056 
	C924.491516,258.715607 925.054199,263.977997 925.518127,270.009247 
	C934.807739,263.363434 943.603638,257.480682 951.816895,250.873672 
	C953.611511,249.429977 953.676514,245.432526 953.932312,242.557312 
	C954.619446,234.831680 954.464172,234.597717 961.904785,233.756317 
	C965.660400,233.331650 969.526123,233.881409 973.755005,234.020081 
M916.678772,314.209198 
	C921.528015,315.113037 926.377258,316.016876 931.582336,316.987061 
	C930.930237,315.185028 930.554199,314.145813 930.531860,314.084076 
	C925.932068,314.084076 921.694702,314.084076 916.678772,314.209198 
z"/>
<path fill="#080809" opacity="1.000000" stroke="none" 
	d="
M350.647522,305.806396 
	C350.657104,309.558105 350.437561,312.953247 350.190247,316.777466 
	C343.657379,316.777466 337.816284,317.090576 332.048462,316.578339 
	C330.410797,316.432892 328.240112,314.139984 327.633087,312.377502 
	C326.629822,309.464417 326.698364,306.182190 326.269867,302.684875 
	C327.943481,301.902618 329.670715,301.095306 330.588562,300.666290 
	C330.588562,285.005127 330.588562,269.874115 330.588562,254.712936 
	C318.732147,255.312485 316.425232,251.910645 320.429108,241.144989 
	C320.888580,239.909546 321.512177,238.735153 321.888916,237.907593 
	C325.628479,237.907593 329.070068,237.907578 332.511658,237.907578 
	C335.819733,237.907578 339.127808,237.907593 342.747925,237.907593 
	C342.747925,241.897537 342.747925,245.494293 342.747925,249.290436 
	C349.577728,246.793961 355.660339,244.725677 361.624481,242.358932 
	C374.897003,237.092026 390.742249,248.000839 393.852448,258.630005 
	C395.820221,265.355072 396.642822,272.530945 397.074921,279.560211 
	C397.608093,288.233521 397.202362,296.964569 397.202362,305.972809 
	C399.696503,306.087067 403.156158,306.245575 406.547882,306.400970 
	C408.828705,316.519073 406.159973,319.814697 396.265686,320.078979 
	C391.473541,320.207001 386.667480,320.830963 381.926849,321.596436 
	C376.808502,322.422882 373.715149,320.685272 374.238037,315.487091 
	C374.919891,308.708282 377.141296,302.099884 378.253723,295.344604 
	C379.462769,288.002808 380.704193,280.594971 380.952942,273.183044 
	C381.331055,261.916290 369.615601,254.761292 360.045349,260.648163 
	C354.359802,264.145477 349.573761,269.258698 344.879822,274.124359 
	C343.399658,275.658691 343.193787,278.719452 343.002441,281.129089 
	C342.726715,284.601410 343.098145,288.119629 343.009705,291.613617 
	C342.886078,296.495514 342.838562,301.211151 349.692871,301.994171 
	C348.157776,302.333923 346.622650,302.673676 344.488068,303.146118 
	C346.875305,304.073486 348.646820,304.761688 350.647522,305.806396 
M338.870941,260.800720 
	C339.123566,264.460632 339.376190,268.120575 339.628845,271.780487 
	C340.138123,271.757202 340.647400,271.733887 341.156677,271.710571 
	C341.312225,268.976837 341.601074,266.242096 341.580109,263.509705 
	C341.564117,261.419250 341.461456,259.100159 339.002411,258.758362 
	C341.576538,255.286743 341.481567,254.735062 336.580902,249.629852 
	C337.127289,254.075089 337.527527,257.331573 338.870941,260.800720 
z"/>
<path fill="#050505" opacity="1.000000" stroke="none" 
	d="
M546.946960,314.969299 
	C535.717712,308.801849 530.632996,298.737762 533.032227,287.427795 
	C535.858215,274.105743 546.440308,263.872711 559.120911,262.926819 
	C566.135254,262.403625 573.220642,262.833038 580.243164,262.833038 
	C579.632202,249.656052 569.007568,240.967209 555.065369,243.072174 
	C550.131592,243.817062 546.813904,246.254257 545.433167,251.127777 
	C544.896606,253.021713 544.363892,254.916763 544.106445,255.829437 
	C541.001282,257.333954 538.678345,258.646729 536.216003,259.598663 
	C533.857910,260.510315 532.079956,260.130493 531.935669,256.939972 
	C531.291321,242.692612 541.464478,231.815506 555.835999,231.488892 
	C557.159973,231.458817 558.497620,231.521912 559.805359,231.356201 
	C581.036255,228.665680 588.119629,238.974304 595.136963,257.715912 
	C598.093872,265.612976 598.369873,273.525024 598.090088,281.687805 
	C597.576355,296.674377 598.553223,298.724213 610.564148,308.690277 
	C607.247131,311.676575 604.166870,314.819977 600.644653,317.347748 
	C599.814392,317.943604 596.870544,316.974609 595.961609,315.859406 
	C589.500916,307.932709 582.545227,310.034210 574.591309,313.455017 
	C568.778809,315.954865 562.191528,316.813416 555.858582,317.844666 
	C553.976196,318.151245 551.785522,316.565155 549.640625,315.200317 
	C548.679077,314.692688 547.813049,314.830994 546.946960,314.969299 
M557.301453,275.601593 
	C546.110107,280.010406 543.101929,284.400146 545.875488,292.886139 
	C547.339111,297.364258 549.723694,300.916321 554.338989,303.435944 
	C560.699707,306.908295 566.055847,305.888733 572.099854,303.005280 
	C585.969666,296.388275 586.052917,296.563751 583.126770,281.694366 
	C583.062805,281.369110 583.161255,280.946564 582.987671,280.719299 
	C582.126160,279.591187 581.386108,277.838837 580.264282,277.527405 
	C573.003845,275.511932 565.827820,272.046814 557.301453,275.601593 
z"/>
<path fill="#070708" opacity="1.000000" stroke="none" 
	d="
M698.886047,319.971100 
	C692.165161,319.845734 685.912537,319.380676 679.689392,319.635559 
	C675.803345,319.794708 671.961792,321.039856 668.086792,321.800323 
	C664.375793,314.944824 665.007629,313.123993 672.208313,310.855621 
	C675.343994,309.867767 678.583435,309.209137 681.741882,308.409546 
	C681.069580,302.395477 680.214050,296.474548 679.815002,290.523010 
	C679.575684,286.953583 680.361023,283.317841 680.148621,279.743805 
	C679.234741,264.368073 678.121033,249.004211 677.081787,233.635925 
	C676.785400,229.252029 673.563293,230.322189 670.933044,230.112564 
	C670.328552,231.847107 670.045044,233.555679 669.177856,234.882843 
	C668.398010,236.076202 666.724304,237.820374 665.893555,237.603439 
	C664.285950,237.183655 662.167236,235.807022 661.731750,234.378479 
	C660.583435,230.610962 659.934570,226.619156 659.719543,222.682114 
	C659.653076,221.464355 661.421387,219.334717 662.696167,219.018341 
	C665.681824,218.277344 668.873718,218.246658 671.988159,218.168503 
	C680.137024,217.964050 688.318542,217.404037 696.431580,217.897812 
	C704.477600,218.387527 712.575928,219.460754 720.432861,221.241714 
	C729.839294,223.373886 736.580688,236.469666 734.851013,245.878250 
	C733.436584,253.572479 727.966614,257.609406 722.086487,262.512756 
	C723.780457,263.580261 725.064148,264.387634 726.346313,265.197540 
	C734.498413,270.347015 740.551147,277.233093 742.545532,286.819153 
	C743.404907,290.949890 743.305115,295.418732 742.828125,299.642120 
	C742.487671,302.656219 741.029846,305.266266 737.180969,306.320648 
	C734.488586,307.058228 732.319519,309.758179 729.954468,311.629456 
	C720.939148,318.762695 710.025513,318.873230 698.886047,319.971100 
M689.087830,300.274109 
	C689.440491,302.908752 689.418945,305.674835 690.281555,308.130371 
	C690.829041,309.689056 692.544128,311.713745 693.987549,311.942932 
	C705.572937,313.782776 716.880798,312.876190 727.041626,306.392792 
	C731.417175,303.600830 735.413574,299.891266 735.000854,294.092407 
	C734.510803,287.206665 732.957336,280.566650 726.192017,276.718933 
	C722.736816,274.753815 719.008118,273.817169 715.108398,273.042389 
	C707.079285,271.447174 699.218933,271.574402 691.613464,274.562653 
	C690.139587,275.141754 688.408936,277.424072 688.388977,278.941620 
	C688.299927,285.738220 688.786560,292.542328 689.087830,300.274109 
M724.303406,244.812592 
	C723.866333,242.024506 724.061157,238.908722 722.829041,236.532944 
	C721.356384,233.693420 718.928711,229.689728 716.451660,229.323700 
	C706.787720,227.895721 697.049133,228.876022 687.280762,231.306046 
	C687.882629,242.754135 688.463562,253.804672 689.073608,265.409637 
	C694.757751,264.164459 699.699524,262.490601 704.738525,262.112640 
	C712.877014,261.502258 717.938599,256.444000 722.782837,250.962280 
	C723.927429,249.667114 723.976440,247.403702 724.303406,244.812592 
z"/>
<path fill="#080809" opacity="1.000000" stroke="none" 
	d="
M417.681671,240.899628 
	C412.570648,241.711166 410.368713,239.616470 411.082550,235.070496 
	C411.108398,234.906113 411.153229,234.744797 411.184509,234.581146 
	C413.359375,223.194077 413.378998,222.695084 425.196381,223.160049 
	C433.460632,223.485229 434.352844,221.003845 434.877899,213.283203 
	C435.350250,206.337189 435.562134,199.373474 435.915039,191.861847 
	C441.163757,191.861847 446.060974,191.861847 450.852448,191.861847 
	C449.678375,202.735748 448.596069,212.759735 447.458496,223.295456 
	C456.500092,223.886856 464.944336,224.439178 473.296265,224.985474 
	C472.594360,231.869385 472.021820,237.484726 471.341003,244.161484 
	C469.920837,243.869232 467.530090,243.085266 465.100433,242.936432 
	C459.587677,242.598679 454.017639,242.201797 448.566681,242.761719 
	C447.578339,242.863235 447.046082,247.404861 446.256958,250.052139 
	C445.721069,249.860062 444.923126,249.574036 444.031616,249.254471 
	C444.675934,253.318436 445.583984,257.191772 445.856018,261.109314 
	C446.672546,272.868622 446.963898,284.669830 448.008331,296.405884 
	C448.650513,303.622253 450.895569,305.155426 458.012268,305.199738 
	C459.843292,305.211121 461.674713,305.108093 463.506317,305.084991 
	C465.160156,305.064117 466.814484,305.080566 468.389069,305.080566 
	C468.641113,305.440308 468.920074,305.665344 468.968170,305.932007 
	C471.084564,317.669861 470.831299,317.901733 458.790283,318.116913 
	C451.436310,318.248322 444.243927,318.318787 437.630554,314.079987 
	C433.720428,311.573822 431.715698,308.558746 431.802551,303.921326 
	C432.098053,288.144470 432.276917,272.365448 432.539764,256.587891 
	C432.584045,253.927979 432.942047,251.271667 432.949371,248.613129 
	C432.966736,242.303192 431.401825,240.791245 425.104309,240.795227 
	C422.771790,240.796692 420.439301,240.833298 417.681671,240.899628 
M430.025269,229.227524 
	C425.695190,229.012039 421.365112,228.796570 417.035034,228.581085 
	C417.022858,229.383087 417.010681,230.185074 416.998535,230.987076 
	C421.787170,230.987076 426.575836,230.987076 431.364502,230.987061 
	C431.176453,230.508560 430.988373,230.030060 430.025269,229.227524 
M416.881989,226.894135 
	C421.035248,226.657516 425.188507,226.420898 429.341766,226.184280 
	C429.319580,225.761551 429.297394,225.338806 429.275238,224.916061 
	C425.061554,224.916061 420.847168,224.886871 416.636169,224.994064 
	C416.402374,225.000015 416.197357,226.135315 416.881989,226.894135 
z"/>
<path fill="#070708" opacity="1.000000" stroke="none" 
	d="
M280.027283,237.854431 
	C295.604767,239.562210 307.566223,251.411270 309.522247,267.072174 
	C310.189972,272.418213 307.092773,276.113617 301.820831,275.996399 
	C287.212036,275.671570 272.601471,275.356964 258.000031,274.812805 
	C253.412247,274.641846 252.558884,276.243500 252.838882,280.700684 
	C253.381363,289.336426 256.666382,296.557251 261.700500,303.344330 
	C267.751160,311.501923 281.979767,315.464783 291.368713,305.738678 
	C293.216278,303.824738 295.200287,302.042542 297.100525,300.219635 
	C294.362274,295.594086 298.070374,293.546051 300.356354,290.917480 
	C302.718475,288.201416 305.079742,288.776581 307.078156,291.107391 
	C310.836578,295.490875 314.380402,300.058380 318.282898,304.794403 
	C318.356140,305.736816 318.159943,306.434204 317.845581,307.486115 
	C315.850861,309.422821 313.974304,311.004944 311.632019,312.979736 
	C309.183777,307.420563 306.378723,308.648712 302.677399,311.494995 
	C292.630249,319.221130 281.479553,321.915283 268.649506,319.647614 
	C251.697037,316.651276 245.861282,304.997711 243.056580,290.148163 
	C239.699554,272.374268 245.000351,257.012787 255.920685,243.213623 
	C256.996704,241.853958 258.738556,240.916412 260.331970,240.094223 
	C263.111542,238.659958 265.972046,237.856659 268.945435,240.964325 
	C270.099121,240.688049 270.632172,240.411819 271.459564,240.106659 
	C272.141266,240.005524 272.528625,239.933350 273.300720,239.906342 
	C275.799408,239.252487 277.913330,238.553452 280.027283,237.854431 
M258.495728,254.989548 
	C257.313782,256.870880 256.131805,258.752197 254.448914,261.430847 
	C261.934174,262.339722 268.635376,263.135223 275.331512,263.971527 
	C282.168182,264.825378 288.999878,265.719360 296.665741,266.702484 
	C296.537567,264.811737 297.146637,262.244751 296.133728,260.895325 
	C292.178528,255.626190 288.052887,250.413040 280.895996,249.002914 
	C272.670868,247.382339 265.671600,250.179596 258.495728,254.989548 
z"/>
<path fill="#080809" opacity="1.000000" stroke="none" 
	d="
M816.961792,263.355530 
	C816.364990,263.759277 815.231628,264.493408 815.247864,264.519775 
	C816.545776,266.627777 818.446838,268.503693 819.226624,270.767578 
	C822.817261,281.192139 820.579651,290.888885 814.760071,299.919983 
	C812.513367,303.406494 809.780823,306.593170 807.682617,310.159424 
	C803.374268,317.481964 796.899292,320.644043 788.675293,320.885071 
	C781.709900,321.089233 774.820801,321.532501 768.144958,318.413849 
	C758.587769,313.949158 753.399170,306.346466 748.678162,297.095642 
	C743.420410,286.792847 748.971924,278.371643 751.529053,270.089935 
	C754.366150,260.901672 760.196289,252.172928 769.537720,247.074158 
	C782.979553,239.737335 795.275208,241.959015 806.504150,251.592972 
	C810.341064,254.884918 813.554382,258.903717 816.971130,262.922729 
	C816.889648,263.255035 816.961792,263.355530 816.961792,263.355530 
M764.827148,301.587494 
	C767.944031,303.748566 770.983643,306.032837 774.193298,308.045990 
	C781.721619,312.767914 790.676147,309.736237 796.492004,305.822540 
	C809.460510,297.095551 807.282959,283.923706 807.163391,271.323273 
	C807.155151,270.445953 805.855835,269.525757 805.059448,268.721924 
	C803.085754,266.729523 801.182495,264.636292 799.012329,262.878143 
	C796.856018,261.131195 794.596680,258.913788 792.056946,258.337311 
	C778.571716,255.276489 763.834839,265.585968 761.126282,279.237152 
	C759.589233,286.983887 759.300903,294.335205 764.827148,301.587494 
z"/>
<path fill="#080809" opacity="1.000000" stroke="none" 
	d="
M825.366699,284.260254 
	C828.095886,276.981903 830.219177,269.864807 833.298767,263.188843 
	C838.979309,250.874817 848.984802,244.080505 862.457886,242.818802 
	C865.632507,242.521515 869.257812,242.835968 872.113770,244.119507 
	C880.939880,248.086319 888.979492,253.325455 894.886108,261.234955 
	C894.437622,261.378082 893.989197,261.521179 893.540710,261.664307 
	C893.877136,263.395569 893.602600,265.844238 894.652161,266.738037 
	C900.179382,271.444946 899.428467,277.746704 898.833313,283.580170 
	C897.512390,296.527008 889.361023,306.175323 881.353943,315.536316 
	C879.146240,318.117310 874.832703,319.552765 871.252869,320.173584 
	C862.714966,321.654205 854.120239,322.016876 845.843567,318.191559 
	C837.104797,314.152618 831.059692,307.640381 827.897339,298.712677 
	C826.312134,294.237335 822.443054,289.995758 825.366699,284.260254 
M839.889771,277.682983 
	C838.361572,285.160492 836.175659,292.795898 841.968384,299.451752 
	C844.282715,302.110870 847.138367,304.370117 849.999084,306.468689 
	C857.968506,312.315063 865.872131,311.593292 874.369568,306.044678 
	C887.620178,297.392303 885.656616,284.071167 885.486389,271.246460 
	C885.480896,270.831085 885.057190,270.352264 884.714661,270.020569 
	C877.644653,263.173065 871.276917,254.788544 859.346741,258.885376 
	C856.587463,259.832916 852.614441,259.375000 851.020813,261.175446 
	C846.807129,265.936157 843.591431,271.580139 839.889771,277.682983 
z"/>
<path fill="#F1F1F1" opacity="1.000000" stroke="none" 
	d="
M663.985596,377.819031 
	C662.368469,379.086212 660.751404,380.353424 658.436584,381.739258 
	C657.136047,381.649170 656.548462,381.346558 655.928162,381.246613 
	C650.876648,380.432648 646.316772,379.142212 646.915833,372.509918 
	C646.381775,372.520721 645.847778,372.531555 645.313721,372.542358 
	C646.262390,370.716644 647.210999,368.890930 648.459045,367.422058 
	C650.206360,367.871979 651.768494,368.365173 653.082642,367.989838 
	C659.305969,366.212585 662.215027,367.962830 662.926392,374.086426 
	C663.073669,375.354553 663.622070,376.576080 663.985596,377.819031 
z"/>
<path fill="#F1F1F1" opacity="1.000000" stroke="none" 
	d="
M776.594299,374.340790 
	C776.833008,378.507629 774.683472,380.897858 770.347534,381.639893 
	C768.881958,381.086792 767.931274,380.807739 766.981934,380.811981 
	C759.690979,380.844330 757.546021,378.204041 759.271179,370.721436 
	C759.287415,370.270233 759.121887,370.111298 758.956421,369.952393 
	C758.956421,369.952393 759.000000,369.999420 759.329163,370.138458 
	C767.448425,365.202209 770.642944,366.087067 774.025269,374.099609 
	C774.183655,374.474670 775.706787,374.273560 776.594299,374.340790 
z"/>
<path fill="#F1F1F1" opacity="1.000000" stroke="none" 
	d="
M631.485596,383.052246 
	C631.485596,383.052277 631.166565,383.151642 631.166565,383.151642 
	C631.166565,383.151642 630.832397,383.151184 630.959717,382.723267 
	C628.363831,379.812439 623.587708,379.111908 624.040771,373.681519 
	C626.265503,368.937042 630.321899,366.493042 634.361877,367.356323 
	C638.753357,368.294769 640.338684,371.170929 639.452332,375.691162 
	C637.651733,377.507446 636.105164,379.097748 634.129578,380.696503 
	C632.962280,381.487366 632.223938,382.269806 631.485596,383.052246 
z"/>
<path fill="#3B3B3B" opacity="1.000000" stroke="none" 
	d="
M850.687744,376.537354 
	C853.281677,382.154175 858.512512,380.269684 862.977295,381.179230 
	C859.509583,383.921509 854.074463,383.688660 850.706482,380.926453 
	C847.313110,378.143494 847.445984,374.642548 849.089661,371.028687 
	C850.881348,367.089600 856.084473,363.823334 859.548767,365.210785 
	C861.562317,366.017212 862.842102,368.655609 864.452087,370.469727 
	C864.087036,371.052979 863.721924,371.636261 863.356873,372.219513 
	C860.279419,372.219513 857.202026,372.212585 854.124573,372.221619 
	C851.546387,372.229218 849.913269,373.127838 850.687744,376.537354 
z"/>
<path fill="#3F3F3F" opacity="1.000000" stroke="none" 
	d="
M563.310059,375.687866 
	C563.511963,371.693146 563.278503,368.244812 558.488403,368.305725 
	C554.142944,368.360931 552.285278,370.928802 552.525879,375.147217 
	C552.620361,376.803284 553.031799,378.507111 552.758606,380.096283 
	C552.561401,381.243195 551.471313,382.236542 550.063782,382.929993 
	C551.221619,376.634766 548.729004,370.134583 551.103821,364.276367 
	C551.613831,364.303925 552.123779,364.331512 552.633789,364.359070 
	C552.896118,365.383575 553.158447,366.408112 553.419922,367.429382 
	C563.190491,365.580963 565.130432,366.248047 565.788452,371.645599 
	C566.489075,377.393066 563.961304,384.367615 560.777283,384.543121 
	C561.621216,381.667572 562.435913,378.891632 563.310059,375.687866 
z"/>
<path fill="#353535" opacity="1.000000" stroke="none" 
	d="
M607.506287,381.817871 
	C605.816040,382.255524 604.125793,382.693176 602.445190,383.128296 
	C602.445190,372.936981 602.445190,363.160004 602.445190,353.365509 
	C604.611267,353.281952 604.611267,353.281952 605.298035,363.490784 
	C609.755432,365.268311 614.093323,366.525391 617.823059,368.785919 
	C618.883545,369.428650 618.173950,372.991882 617.721680,375.590698 
	C616.779968,375.558868 616.109497,375.190948 616.047729,374.739716 
	C615.087769,367.727997 613.019409,366.271484 605.659668,367.897461 
	C606.085693,372.526489 603.166565,377.548645 607.506287,381.817871 
z"/>
<path fill="#EDEDED" opacity="1.000000" stroke="none" 
	d="
M607.922913,381.884399 
	C603.166565,377.548645 606.085693,372.526489 605.659668,367.897461 
	C613.019409,366.271484 615.087769,367.727997 616.047729,374.739716 
	C616.109497,375.190948 616.779968,375.558868 617.576904,375.936462 
	C615.727173,379.448425 612.709473,381.778900 607.922913,381.884399 
z"/>
<path fill="#454545" opacity="1.000000" stroke="none" 
	d="
M843.154602,353.565430 
	C843.078125,358.819153 843.069702,363.639038 843.066528,368.458954 
	C843.063477,373.085358 843.065857,377.711792 843.065857,384.261200 
	C841.449219,382.387848 839.973450,381.474518 839.954285,380.531647 
	C839.772583,371.576538 839.763855,362.615112 839.923767,353.659393 
	C839.944580,352.496735 841.202393,351.356110 841.887207,350.205261 
	C842.333130,351.180725 842.779053,352.156189 843.154602,353.565430 
z"/>
<path fill="#323232" opacity="1.000000" stroke="none" 
	d="
M879.489441,369.347900 
	C877.930420,368.407928 876.467041,367.883270 875.003723,367.358582 
	C883.632935,366.913300 877.872742,357.992004 883.233948,354.265839 
	C882.841187,358.654938 882.539124,362.030853 882.229736,365.488495 
	C884.620789,365.960358 886.598511,366.350647 888.576233,366.740936 
	C888.552307,367.076660 888.528381,367.412384 888.504517,367.748077 
	C886.607239,367.990906 884.709961,368.233765 882.833008,368.473969 
	C880.418335,375.417725 881.332520,377.659698 887.894653,381.864502 
	C886.512085,381.935547 884.890869,382.512604 883.787292,381.992126 
	C878.332886,379.419769 879.743713,374.283234 879.489441,369.347900 
z"/>
<path fill="#353535" opacity="1.000000" stroke="none" 
	d="
M791.713501,368.991699 
	C791.713440,362.763275 791.713440,357.035553 791.713440,351.014984 
	C792.603760,351.228027 793.989502,351.393066 793.993103,351.584412 
	C794.162598,360.481628 794.268677,369.381531 794.214722,378.280090 
	C794.206299,379.667480 793.404541,381.050079 792.969666,382.434875 
	C792.550964,382.284576 792.132324,382.134277 791.713623,381.983978 
	C791.713623,377.820099 791.713623,373.656250 791.713501,368.991699 
z"/>
<path fill="#454545" opacity="1.000000" stroke="none" 
	d="
M747.926697,380.533417 
	C751.852783,377.934814 751.268494,375.949921 747.629272,374.361694 
	C746.565674,373.897491 745.390625,373.654541 744.385742,373.096008 
	C741.258118,371.357605 741.244629,367.847321 744.299744,366.005829 
	C747.600342,364.016479 751.046692,364.710938 751.641541,367.449066 
	C749.276306,367.620361 746.874146,367.794342 744.472046,367.968292 
	C744.342712,368.628998 744.213379,369.289703 744.084045,369.950409 
	C746.163269,370.846313 748.500305,371.407349 750.238892,372.745758 
	C751.591431,373.786957 753.356262,376.387482 752.910767,377.260956 
	C751.759277,379.518311 749.764465,381.710022 747.554993,382.925415 
	C746.246277,383.645233 743.891174,382.462585 742.006592,382.135406 
	C742.121887,381.572601 742.237183,381.009796 742.352478,380.446991 
	C744.068420,380.522186 745.784363,380.597351 747.926697,380.533417 
z"/>
<path fill="#353535" opacity="1.000000" stroke="none" 
	d="
M449.823151,366.593689 
	C456.271454,364.104309 457.198212,364.250488 457.802185,367.376373 
	C455.365692,367.631378 452.861694,367.893433 449.263062,368.270050 
	C452.717957,373.149780 463.308197,371.762238 457.880707,380.183746 
	C456.330322,382.589386 452.228271,383.818390 448.044312,381.038300 
	C449.999939,381.225311 451.380554,381.793915 452.218445,381.346375 
	C453.952240,380.420319 455.397278,378.953613 456.961029,377.709229 
	C455.809540,376.515747 454.869629,374.802643 453.465057,374.230713 
	C449.907440,372.782074 446.651184,371.567810 449.823151,366.593689 
z"/>
<path fill="#353535" opacity="1.000000" stroke="none" 
	d="
M539.208801,382.001892 
	C538.842590,382.047668 538.476379,382.093445 537.705811,381.986420 
	C541.913269,376.070374 541.891907,375.991882 535.126343,373.461182 
	C535.040833,373.429169 535.043884,373.160706 535.005615,373.002655 
	C536.593323,371.562042 540.932373,373.005524 539.910828,368.992920 
	C538.706787,364.263824 534.711975,365.089417 530.727417,365.984100 
	C534.550171,361.616913 540.630859,361.977936 541.505371,366.583221 
	C542.659058,372.658478 542.422974,379.007050 542.577026,385.243256 
	C542.588257,385.699707 540.921326,386.197540 539.832031,386.044098 
	C539.489258,384.275360 539.348999,383.138611 539.208801,382.001892 
z"/>
<path fill="#2D2D2D" opacity="1.000000" stroke="none" 
	d="
M824.014038,366.120667 
	C825.025940,364.859283 826.294189,363.723602 826.988953,362.306763 
	C828.004883,360.235016 828.609558,357.961548 829.997803,355.868927 
	C828.287537,360.371552 827.622498,364.486908 832.063110,368.423889 
	C832.100586,367.836884 832.092896,367.957458 832.085205,368.078033 
	C831.962036,368.002472 831.838928,367.926880 831.715759,367.851318 
	C830.819580,369.330322 828.986633,370.980072 829.218750,372.253510 
	C829.730835,375.063171 831.208679,377.719086 832.473328,380.350830 
	C832.732971,380.891235 833.782776,381.051910 834.041321,381.178528 
	C833.670776,381.064819 832.739746,380.968781 832.029846,380.521576 
	C830.581665,379.609222 829.252625,378.507690 826.932922,376.784698 
	C826.932922,375.507080 827.118103,373.026306 826.837097,370.599548 
	C826.732178,369.693085 825.539612,368.912628 824.422119,367.680359 
	C824.005493,366.897552 824.009766,366.509125 824.014038,366.120667 
z"/>
<path fill="#3B3B3B" opacity="1.000000" stroke="none" 
	d="
M672.871826,376.460419 
	C672.836609,378.654846 672.801392,380.849243 672.766174,383.043671 
	C672.140686,383.008240 671.515137,382.972809 670.889587,382.937378 
	C670.889587,373.316681 670.870483,363.695801 670.974548,354.076233 
	C670.977966,353.761780 672.236084,353.460846 673.033936,353.096741 
	C673.033936,359.844666 673.033936,366.189270 673.020142,373.316711 
	C672.961487,374.886536 672.916687,375.673462 672.871826,376.460419 
z"/>
<path fill="#3B3B3B" opacity="1.000000" stroke="none" 
	d="
M918.867981,367.513306 
	C921.999023,365.412872 925.545044,363.471222 928.871155,366.170288 
	C932.743530,369.312622 931.262207,373.890564 929.902405,377.698578 
	C929.127075,379.869537 930.197815,384.036591 925.057861,383.991241 
	C926.194824,381.025482 927.711975,378.551392 927.980530,375.948486 
	C928.247253,373.363434 927.877563,370.241699 926.525574,368.184052 
	C925.955566,367.316650 922.152222,368.573822 919.372498,368.553711 
	C918.906860,367.999268 918.887451,367.756287 918.867981,367.513306 
z"/>
<path fill="#3B3B3B" opacity="1.000000" stroke="none" 
	d="
M514.283875,368.149292 
	C516.719360,367.144409 519.330994,365.097656 521.533630,365.470032 
	C523.241272,365.758698 525.642151,369.090088 525.610352,371.034210 
	C525.544678,375.056732 524.154053,379.080994 523.066589,383.038116 
	C522.904968,383.626251 521.429626,383.853271 520.186218,384.418152 
	C521.300415,379.941040 522.725464,376.246063 523.049500,372.456909 
	C523.595825,366.067688 518.699158,367.427399 514.576660,367.767639 
	C514.234680,368.076935 514.283875,368.149323 514.283875,368.149292 
z"/>
<path fill="#D7D7D7" opacity="1.000000" stroke="none" 
	d="
M534.634521,373.035217 
	C535.043884,373.160706 535.040833,373.429169 535.126343,373.461182 
	C541.891907,375.991882 541.913269,376.070374 537.463989,382.125183 
	C534.993652,384.456879 532.252014,384.509857 530.334595,381.780762 
	C528.375793,378.992767 530.258118,375.282715 534.634521,373.035217 
z"/>
<path fill="#3F3F3F" opacity="1.000000" stroke="none" 
	d="
M691.370422,370.835999 
	C692.144714,371.100403 693.039490,371.199432 693.671326,371.659515 
	C695.755859,373.177460 698.684082,374.480438 699.444031,376.544830 
	C699.957520,377.940063 697.824341,381.166718 696.056030,382.345490 
	C693.338440,384.157013 690.137756,383.697754 687.361328,381.230591 
	C686.994629,381.486908 686.963379,381.548767 686.963379,381.548767 
	C688.689575,381.284882 690.512329,381.281647 692.116272,380.687653 
	C693.904846,380.025330 695.494629,378.826050 697.170898,377.860474 
	C695.936890,376.594116 694.800110,375.207092 693.433228,374.105560 
	C692.577942,373.416321 691.376099,373.157074 690.300842,372.128510 
	C690.638123,371.313416 691.004272,371.074707 691.370422,370.835999 
z"/>
<path fill="#353535" opacity="1.000000" stroke="none" 
	d="
M686.906616,381.175201 
	C686.963379,381.548767 686.994629,381.486908 686.987732,381.453979 
	C685.637756,381.532928 684.034546,382.170715 682.999878,381.658997 
	C679.764343,380.058868 676.743408,378.024719 673.255615,376.309601 
	C672.916687,375.673462 672.961487,374.886536 672.941284,373.810608 
	C676.360840,371.638153 679.845459,369.754700 683.330139,367.871277 
	C683.294922,367.727936 683.259644,367.584595 683.224426,367.441254 
	C680.783752,369.556030 678.343079,371.670807 675.545410,374.094940 
	C679.637329,376.522614 683.243591,378.662140 686.906616,381.175201 
z"/>
<path fill="#353535" opacity="1.000000" stroke="none" 
	d="
M810.007446,366.107300 
	C813.679443,365.572906 813.192871,362.553009 813.674500,360.063538 
	C813.997742,358.392670 814.506287,356.757629 814.931946,355.106567 
	C815.487244,355.205933 816.042603,355.305328 816.597900,355.404694 
	C816.297058,358.647278 815.996216,361.889862 815.648682,365.635559 
	C817.360474,365.819489 818.758240,365.969635 820.562439,366.526245 
	C820.986084,367.254242 820.985291,367.575806 820.966553,367.897308 
	C818.993896,368.918365 815.109863,366.606995 814.852295,371.469940 
	C814.055237,371.150085 813.597534,370.569977 813.139832,369.989868 
	C812.366455,369.358337 811.593140,368.726837 810.408875,367.691895 
	C810.001160,366.894745 810.004272,366.501038 810.007446,366.107300 
z"/>
<path fill="#323232" opacity="1.000000" stroke="none" 
	d="
M639.706299,375.465210 
	C640.338684,371.170929 638.753357,368.294769 634.361877,367.356323 
	C630.321899,366.493042 626.265503,368.937042 623.718018,373.679657 
	C622.812256,373.999390 622.381775,373.998718 621.951355,373.998047 
	C623.741211,366.925507 629.731079,363.362701 636.594421,365.288300 
	C641.507385,366.666687 642.992920,370.015167 640.963013,376.493530 
	C640.183167,376.242706 639.944702,375.853973 639.706299,375.465210 
z"/>
<path fill="#323232" opacity="1.000000" stroke="none" 
	d="
M948.703186,368.949860 
	C949.474060,372.116974 947.318848,371.827026 945.251953,372.176575 
	C942.735168,372.602203 940.313110,373.588379 937.850098,374.332092 
	C939.165710,376.826477 940.481445,379.320862 942.157654,382.498871 
	C940.315918,381.517792 938.011169,380.997284 936.901611,379.556427 
	C934.341187,376.231323 935.410217,372.650482 938.067139,369.159119 
	C939.805786,369.244019 940.915161,369.495300 942.425537,369.822449 
	C944.668030,369.583191 946.509521,369.268066 948.439575,369.015503 
	C948.528198,369.078125 948.703186,368.949860 948.703186,368.949860 
z"/>
<path fill="#323232" opacity="1.000000" stroke="none" 
	d="
M465.977478,367.189880 
	C469.722595,366.480499 473.563660,364.878540 477.190582,365.268433 
	C482.803589,365.871826 484.173218,371.979889 480.161407,378.738525 
	C479.348419,378.445801 479.113983,378.103638 479.006836,377.393494 
	C478.995697,374.448181 479.831390,370.800812 478.472687,369.563965 
	C476.767181,368.011444 473.264313,368.131836 470.535675,368.125336 
	C469.054443,368.121765 467.570282,369.352936 465.335297,370.150696 
	C464.122864,370.489502 463.662598,370.704803 463.202332,370.920105 
	C463.422546,370.213654 463.642761,369.507233 464.561493,368.339661 
	C465.499146,367.649017 465.738312,367.419434 465.977478,367.189880 
z"/>
<path fill="#3B3B3B" opacity="1.000000" stroke="none" 
	d="
M803.249023,363.504211 
	C804.071350,364.402374 804.956299,365.410736 805.003296,366.456726 
	C805.216614,371.202454 805.325378,375.963898 805.141907,380.706940 
	C805.106079,381.633820 803.606384,382.504059 802.781860,383.400421 
	C802.406921,383.152374 802.032043,382.904297 801.657104,382.656250 
	C801.657104,376.768738 801.628845,370.880798 801.711914,364.994446 
	C801.718445,364.534607 802.502869,364.085754 803.249023,363.504211 
z"/>
<path fill="#2D2D2D" opacity="1.000000" stroke="none" 
	d="
M569.749756,367.120117 
	C571.039978,364.694305 572.144165,364.698517 573.082886,367.051605 
	C573.935303,369.188629 574.558167,371.468872 575.736694,373.410004 
	C576.975952,375.451080 578.754639,377.164642 580.782593,379.604889 
	C580.493774,380.330292 579.804077,382.062561 578.685181,384.872589 
	C575.408875,378.493652 572.571350,372.969025 569.749756,367.120117 
z"/>
<path fill="#323232" opacity="1.000000" stroke="none" 
	d="
M664.136963,377.503967 
	C663.622070,376.576080 663.073669,375.354553 662.926392,374.086426 
	C662.215027,367.962830 659.305969,366.212585 653.082642,367.989838 
	C651.768494,368.365173 650.206360,367.871979 648.817993,367.370911 
	C651.230530,366.299255 653.545532,365.319550 655.943787,365.029999 
	C663.817078,364.079559 668.636292,371.050537 664.136963,377.503967 
z"/>
<path fill="#2D2D2D" opacity="1.000000" stroke="none" 
	d="
M918.487061,367.576477 
	C918.887451,367.756287 918.906860,367.999268 918.958130,368.606445 
	C918.470215,372.148529 917.995850,375.334747 917.410889,378.500519 
	C917.131348,380.013855 916.641968,381.488403 916.247620,382.980530 
	C915.726379,382.893799 915.205139,382.807037 914.683899,382.720276 
	C914.853333,379.785645 914.957886,376.845520 915.207275,373.917694 
	C915.603882,369.260803 914.005066,366.561707 908.516174,366.861908 
	C908.170105,366.600128 908.052551,366.394226 908.052551,366.394226 
	C911.403748,366.809357 914.755005,367.224518 918.487061,367.576477 
z"/>
<path fill="#2D2D2D" opacity="1.000000" stroke="none" 
	d="
M776.541870,373.991058 
	C775.706787,374.273560 774.183655,374.474670 774.025269,374.099609 
	C770.642944,366.087067 767.448425,365.202209 759.300903,370.123352 
	C758.728271,369.752655 758.289246,369.410370 758.330078,369.337555 
	C760.175903,366.049835 766.090271,364.022675 770.588074,365.244293 
	C774.813660,366.391937 776.942383,369.141693 776.541870,373.991058 
z"/>
<path fill="#3B3B3B" opacity="1.000000" stroke="none" 
	d="
M504.177551,367.679321 
	C499.078339,369.030060 500.392853,373.171936 500.292023,376.672119 
	C500.231567,378.771118 500.280914,380.873291 499.778381,382.941040 
	C497.070007,378.811676 497.329224,367.067169 499.274475,364.645599 
	C500.732147,365.188568 502.034485,365.673676 503.720642,366.524292 
	C504.128754,367.152985 504.153137,367.416168 504.177551,367.679321 
z"/>
<path fill="#454545" opacity="1.000000" stroke="none" 
	d="
M907.646973,366.487854 
	C908.052551,366.394226 908.170105,366.600128 908.124023,366.644226 
	C907.342102,370.617004 906.600586,374.544678 905.873047,378.474945 
	C905.589478,380.006775 905.337341,381.544434 905.070923,383.079407 
	C904.395264,383.026215 903.719543,382.972992 903.043884,382.919769 
	C903.043884,377.321991 902.996948,371.723236 903.109375,366.127716 
	C903.122009,365.500000 904.037109,364.890411 904.533752,364.272430 
	C905.436279,365.042114 906.338806,365.811798 907.646973,366.487854 
z"/>
<path fill="#2D2D2D" opacity="1.000000" stroke="none" 
	d="
M504.557404,367.603729 
	C504.153137,367.416168 504.128754,367.152985 504.067993,366.495056 
	C507.868347,363.119629 510.459625,366.756317 513.903259,368.018005 
	C514.283875,368.149323 514.234680,368.076935 514.201843,368.055481 
	C513.514160,371.375732 512.869568,374.719482 512.200073,378.058289 
	C511.869324,379.707916 511.492828,381.348389 511.136993,382.992981 
	C510.735901,382.897064 510.334808,382.801117 509.933716,382.705200 
	C509.933716,379.065979 510.018738,375.424194 509.907776,371.788361 
	C509.812622,368.669434 508.590637,366.616089 504.557404,367.603729 
z"/>
<path fill="#2D2D2D" opacity="1.000000" stroke="none" 
	d="
M893.025757,377.514099 
	C892.933228,373.455170 892.725586,369.831451 892.818359,366.215485 
	C892.844666,365.190155 893.747253,364.187317 895.245422,363.563080 
	C895.245422,367.241028 895.183472,370.920441 895.272034,374.596252 
	C895.315125,376.385651 895.874451,378.184570 895.752319,379.948181 
	C895.673157,381.092102 894.785095,382.179993 894.259460,383.292969 
	C893.711975,383.076080 893.164551,382.859161 892.617065,382.642273 
	C892.752930,381.078918 892.888794,379.515594 893.025757,377.514099 
z"/>
<path fill="#323232" opacity="1.000000" stroke="none" 
	d="
M759.089417,371.013733 
	C757.546021,378.204041 759.690979,380.844330 766.981934,380.811981 
	C767.931274,380.807739 768.881958,381.086792 769.979980,381.635406 
	C766.753723,382.220581 763.099121,383.313629 760.070557,382.378632 
	C755.407898,380.939087 754.786194,376.531708 757.754761,370.109741 
	C758.461609,370.458740 758.775513,370.736237 759.089417,371.013733 
z"/>
<path fill="#2D2D2D" opacity="1.000000" stroke="none" 
	d="
M463.112671,371.101746 
	C463.662598,370.704803 464.122864,370.489502 465.196960,370.527588 
	C463.745880,376.610657 465.258942,380.137421 470.350037,380.759033 
	C472.245575,380.990509 474.237976,380.428314 476.499146,380.530334 
	C477.020203,381.034729 477.228333,381.236816 477.436462,381.438873 
	C474.292267,381.936005 471.068024,383.126923 468.021759,382.775421 
	C462.834442,382.176819 461.231689,377.911682 463.112671,371.101746 
z"/>
<path fill="#353535" opacity="1.000000" stroke="none" 
	d="
M645.313904,372.862854 
	C645.847778,372.531555 646.381775,372.520721 646.915833,372.509918 
	C646.316772,379.142212 650.876648,380.432648 655.928162,381.246613 
	C656.548462,381.346558 657.136047,381.649170 658.154663,381.918823 
	C649.919434,385.176575 644.360840,381.488129 645.313904,372.862854 
z"/>
<path fill="#454545" opacity="1.000000" stroke="none" 
	d="
M691.232239,370.428711 
	C691.004272,371.074707 690.638123,371.313416 690.106079,371.838623 
	C687.170044,369.075165 688.750610,366.966797 691.714905,365.782349 
	C694.069641,364.841461 696.958191,363.678528 698.686584,366.179352 
	C695.735474,367.672699 693.414795,368.847046 691.232239,370.428711 
z"/>
<path fill="#353535" opacity="1.000000" stroke="none" 
	d="
M814.995178,375.002075 
	C816.851013,377.052795 818.706787,379.103485 821.023926,381.663971 
	C820.623230,381.875824 819.117065,383.002014 818.850769,382.760620 
	C816.778320,380.881714 814.944702,378.739532 813.330017,376.211639 
	C814.080261,375.497040 814.537720,375.249573 814.995178,375.002075 
z"/>
<path fill="#EDEDED" opacity="1.000000" stroke="none" 
	d="
M942.024475,369.746582 
	C940.915161,369.495300 939.805786,369.244019 938.340698,368.927185 
	C940.008545,364.627472 943.123352,362.953186 947.801025,365.352692 
	C947.540283,366.673553 947.182861,367.360657 946.456543,368.055176 
	C944.733276,368.623962 943.378845,369.185272 942.024475,369.746582 
z"/>
<path fill="#2D2D2D" opacity="1.000000" stroke="none" 
	d="
M621.822876,374.393188 
	C622.381775,373.998718 622.812256,373.999390 623.565491,374.001923 
	C623.587708,379.111908 628.363831,379.812439 630.800476,382.672791 
	C624.006775,382.701233 621.972534,380.795593 621.822876,374.393188 
z"/>
<path fill="#454545" opacity="1.000000" stroke="none" 
	d="
M639.452332,375.691162 
	C639.944702,375.853973 640.183167,376.242706 640.710938,376.815796 
	C639.547913,378.620697 638.095520,380.241272 636.130249,381.624115 
	C635.264404,381.153625 634.911438,380.920868 634.558533,380.688110 
	C636.105164,379.097748 637.651733,377.507446 639.452332,375.691162 
z"/>
<path fill="#3F3F3F" opacity="1.000000" stroke="none" 
	d="
M815.049438,374.622406 
	C814.537720,375.249573 814.080261,375.497040 813.383911,375.850403 
	C813.068726,374.213806 812.992432,372.471313 813.027954,370.359344 
	C813.597534,370.569977 814.055237,371.150085 814.708618,371.842651 
	C814.970703,372.717651 815.037170,373.480194 815.049438,374.622406 
z"/>
<path fill="#6B60B1" opacity="1.000000" stroke="none" 
	d="
M946.825439,368.047729 
	C947.182861,367.360657 947.540283,366.673553 948.006592,365.694244 
	C948.498291,366.537079 948.881165,367.672150 948.983643,368.878540 
	C948.703186,368.949860 948.528198,369.078125 948.294495,368.728821 
	C947.649048,368.268890 947.237244,368.158325 946.825439,368.047729 
z"/>
<path fill="#2D2D2D" opacity="1.000000" stroke="none" 
	d="
M634.129578,380.696533 
	C634.911438,380.920868 635.264404,381.153625 635.795105,381.649475 
	C634.738403,382.276855 633.504028,382.641205 631.877563,383.028900 
	C632.223938,382.269806 632.962280,381.487366 634.129578,380.696533 
z"/>
<path fill="#D7D7D7" opacity="1.000000" stroke="none" 
	d="
M539.115356,382.347870 
	C539.348999,383.138611 539.489258,384.275360 539.558594,385.757629 
	C539.332458,384.966736 539.177246,383.830292 539.115356,382.347870 
z"/>
<path fill="#3F3F3F" opacity="1.000000" stroke="none" 
	d="
M821.347778,367.927063 
	C820.985291,367.575806 820.986084,367.254242 820.968384,366.691711 
	C821.727905,366.296387 822.487854,366.141968 823.630981,366.054138 
	C824.009766,366.509125 824.005493,366.897552 824.008179,367.577332 
	C823.253052,367.898010 822.491089,367.927399 821.347778,367.927063 
z"/>
<path fill="#3F3F3F" opacity="1.000000" stroke="none" 
	d="
M478.879547,377.761505 
	C479.113983,378.103638 479.348419,378.445801 479.863037,378.931213 
	C479.631927,379.687531 479.120605,380.300568 478.170837,380.721283 
	C477.393982,380.332886 477.055511,380.136810 476.860840,379.663391 
	C477.629578,378.844513 478.254547,378.303009 478.879547,377.761505 
z"/>
<path fill="#3F3F3F" opacity="1.000000" stroke="none" 
	d="
M809.692017,366.053070 
	C810.004272,366.501038 810.001160,366.894745 810.003174,367.583740 
	C809.450562,367.680115 808.892883,367.481232 808.335083,367.282349 
	C808.682312,366.854492 809.029480,366.426666 809.692017,366.053070 
z"/>
<path fill="#C7C8C9" opacity="1.000000" stroke="none" 
	d="
M547.239746,314.996704 
	C547.813049,314.830994 548.679077,314.692688 549.417236,314.851379 
	C548.703674,315.106964 548.118103,315.065552 547.239746,314.996704 
z"/>
<path fill="#2D2D2D" opacity="1.000000" stroke="none" 
	d="
M476.717072,379.940735 
	C477.055511,380.136810 477.393982,380.332886 477.873718,380.789398 
	C478.015015,381.049835 477.806976,381.365234 477.621704,381.402039 
	C477.228333,381.236816 477.020203,381.034729 476.610016,380.418152 
	C476.407928,380.003662 476.717072,379.940735 476.717072,379.940735 
z"/>
<path fill="#2D2D2D" opacity="1.000000" stroke="none" 
	d="
M759.271179,370.721436 
	C758.775513,370.736237 758.461609,370.458740 758.037415,369.879303 
	C758.141968,369.520966 758.356812,369.464569 758.764038,369.680267 
	C759.121887,370.111298 759.287415,370.270233 759.271179,370.721436 
z"/>
<path fill="#2D2D2D" opacity="1.000000" stroke="none" 
	d="
M465.692749,367.149475 
	C465.738312,367.419434 465.499146,367.649017 465.021729,367.966248 
	C464.991638,367.738983 465.199829,367.424011 465.692749,367.149475 
z"/>
<path fill="#080809" opacity="1.000000" stroke="none" 
	d="
M816.829590,263.269714 
	C816.769470,263.284363 817.054382,263.132599 817.054382,263.132599 
	C817.054382,263.132599 816.804382,263.140442 816.883057,263.247986 
	C816.961792,263.355530 816.889648,263.255035 816.829590,263.269714 
z"/>
<path fill="#050506" opacity="1.000000" stroke="none" 
	d="
M156.619476,247.135437 
	C156.423187,238.527618 156.423187,230.289398 156.423187,221.474960 
	C152.889145,222.091232 150.287689,222.972153 147.736160,222.845673 
	C145.911636,222.755249 142.927628,221.630737 142.612701,220.411743 
	C141.874878,217.555756 140.711075,213.000687 144.973572,212.246597 
	C155.464935,210.390457 165.865082,206.922287 176.839737,209.549484 
	C181.152527,210.581909 185.713333,210.578217 190.585663,211.012207 
	C196.282715,212.420242 201.668945,213.543472 206.803680,215.372665 
	C216.743256,218.913513 222.306931,226.599670 224.398911,236.552414 
	C226.409576,246.118286 222.956039,254.324814 215.673233,260.597351 
	C211.801346,263.932190 207.259109,266.509430 202.922379,269.276428 
	C200.072052,271.095032 199.042587,272.727631 201.448898,275.959473 
	C207.501419,284.088593 213.292557,292.418274 218.996170,300.798401 
	C221.551270,304.552551 225.164108,305.412567 229.263885,305.835510 
	C237.526627,306.687927 238.177933,307.587860 237.699234,316.332275 
	C228.306564,320.662048 218.894913,315.853394 211.156723,316.828400 
	C204.191330,303.178009 198.335968,290.196930 191.064865,278.064362 
	C187.205856,271.625244 180.859619,278.342682 175.599365,277.974548 
	C172.390869,277.750031 171.799942,280.509003 171.934128,283.295624 
	C172.166168,288.113159 172.035263,292.963440 172.541107,297.748779 
	C173.215927,304.132721 173.864120,304.432159 180.621719,303.627869 
	C181.092880,303.571808 181.576523,303.620575 182.730972,303.620575 
	C182.730972,306.812866 182.981537,309.921143 182.592499,312.947144 
	C182.459702,313.980042 180.759430,315.555267 179.708878,315.610107 
	C170.279602,316.102631 160.835037,316.429077 151.396515,316.393127 
	C150.588623,316.390076 149.220566,313.460907 149.114838,311.826233 
	C148.923416,308.866821 148.077408,305.226898 152.382477,304.026398 
	C154.432281,303.454803 156.511551,302.988831 159.151840,302.332153 
	C158.370316,283.989868 157.593048,265.747467 156.619476,247.135437 
M185.191071,220.415680 
	C180.359467,220.759247 175.527863,221.102829 171.441391,221.393417 
	C171.441391,227.047211 171.441391,232.091736 171.162491,237.987625 
	C171.097214,247.257797 167.788864,256.592926 172.015137,266.703613 
	C176.510849,265.434265 181.295334,264.682709 185.545486,262.753784 
	C193.450470,259.166168 202.474518,258.027130 209.107193,251.544876 
	C214.354767,246.416275 215.815292,238.922592 212.055710,232.630844 
	C206.030518,222.547546 197.904373,218.749588 185.191071,220.415680 
z"/>
<path fill="#6B60B1" opacity="1.000000" stroke="none" 
	d="
M279.713257,237.602264 
	C277.913330,238.553452 275.799408,239.252487 273.095642,239.659119 
	C271.660980,239.238602 270.816101,239.110489 269.981476,238.988724 
	C269.991730,238.995071 270.011749,239.008896 270.011749,239.008896 
	C272.503021,234.845871 276.213715,237.584076 279.713257,237.602264 
z"/>
<path fill="#6B60B1" opacity="1.000000" stroke="none" 
	d="
M271.165192,240.135605 
	C270.632172,240.411819 270.099121,240.688049 269.255981,240.910934 
	C269.122223,240.316406 269.298645,239.775238 269.743408,239.121475 
	C270.011749,239.008896 269.991730,238.995071 270.123474,239.233246 
	C270.558533,239.692825 270.861877,239.914215 271.165192,240.135605 
z"/>
<path fill="#C7C8C9" opacity="1.000000" stroke="none" 
	d="
M917.067993,314.146637 
	C921.694702,314.084076 925.932068,314.084076 930.531860,314.084076 
	C930.554199,314.145813 930.930237,315.185028 931.582336,316.987061 
	C926.377258,316.016876 921.528015,315.113037 917.067993,314.146637 
z"/>
<path fill="#C7C8C9" opacity="1.000000" stroke="none" 
	d="
M338.348877,259.198151 
	C341.461456,259.100159 341.564117,261.419250 341.580109,263.509705 
	C341.601074,266.242096 341.312225,268.976837 341.156677,271.710571 
	C340.647400,271.733887 340.138123,271.757202 339.628845,271.780487 
	C339.376190,268.120575 339.123566,264.460632 338.329895,260.493530 
	C337.975525,259.856934 338.162201,259.527557 338.348877,259.198151 
z"/>
<path fill="#EDEDED" opacity="1.000000" stroke="none" 
	d="
M338.675659,258.978271 
	C338.162201,259.527557 337.975525,259.856934 337.858307,260.387207 
	C337.527527,257.331573 337.127289,254.075089 336.580902,249.629852 
	C341.481567,254.735062 341.576538,255.286743 338.675659,258.978271 
z"/>
<path fill="#FBFBFB" opacity="1.000000" stroke="none" 
	d="
M557.660645,275.421631 
	C565.827820,272.046814 573.003845,275.511932 580.264282,277.527405 
	C581.386108,277.838837 582.126160,279.591187 582.987671,280.719299 
	C583.161255,280.946564 583.062805,281.369110 583.126770,281.694366 
	C586.052917,296.563751 585.969666,296.388275 572.099854,303.005280 
	C566.055847,305.888733 560.699707,306.908295 554.338989,303.435944 
	C549.723694,300.916321 547.339111,297.364258 545.875488,292.886139 
	C543.101929,284.400146 546.110107,280.010406 557.660645,275.421631 
z"/>
<path fill="#FBFBFB" opacity="1.000000" stroke="none" 
	d="
M689.076599,299.808929 
	C688.786560,292.542328 688.299927,285.738220 688.388977,278.941620 
	C688.408936,277.424072 690.139587,275.141754 691.613464,274.562653 
	C699.218933,271.574402 707.079285,271.447174 715.108398,273.042389 
	C719.008118,273.817169 722.736816,274.753815 726.192017,276.718933 
	C732.957336,280.566650 734.510803,287.206665 735.000854,294.092407 
	C735.413574,299.891266 731.417175,303.600830 727.041626,306.392792 
	C716.880798,312.876190 705.572937,313.782776 693.987549,311.942932 
	C692.544128,311.713745 690.829041,309.689056 690.281555,308.130371 
	C689.418945,305.674835 689.440491,302.908752 689.076599,299.808929 
z"/>
<path fill="#FAFAFA" opacity="1.000000" stroke="none" 
	d="
M724.416382,245.199127 
	C723.976440,247.403702 723.927429,249.667114 722.782837,250.962280 
	C717.938599,256.444000 712.877014,261.502258 704.738525,262.112640 
	C699.699524,262.490601 694.757751,264.164459 689.073608,265.409637 
	C688.463562,253.804672 687.882629,242.754135 687.280762,231.306046 
	C697.049133,228.876022 706.787720,227.895721 716.451660,229.323700 
	C718.928711,229.689728 721.356384,233.693420 722.829041,236.532944 
	C724.061157,238.908722 723.866333,242.024506 724.416382,245.199127 
z"/>
<path fill="#EDEDED" opacity="1.000000" stroke="none" 
	d="
M430.412781,229.389526 
	C430.988373,230.030060 431.176453,230.508560 431.364502,230.987061 
	C426.575836,230.987076 421.787170,230.987076 416.998535,230.987076 
	C417.010681,230.185074 417.022858,229.383087 417.035034,228.581085 
	C421.365112,228.796570 425.695190,229.012039 430.412781,229.389526 
z"/>
<path fill="#C7C8C9" opacity="1.000000" stroke="none" 
	d="
M416.430481,226.819550 
	C416.197357,226.135315 416.402374,225.000015 416.636169,224.994064 
	C420.847168,224.886871 425.061554,224.916061 429.275238,224.916061 
	C429.297394,225.338806 429.319580,225.761551 429.341766,226.184280 
	C425.188507,226.420898 421.035248,226.657516 416.430481,226.819550 
z"/>
<path fill="#8D77E9" opacity="1.000000" stroke="none" 
	d="
M258.730164,254.705368 
	C265.671600,250.179596 272.670868,247.382339 280.895996,249.002914 
	C288.052887,250.413040 292.178528,255.626190 296.133728,260.895325 
	C297.146637,262.244751 296.537567,264.811737 296.665741,266.702484 
	C288.999878,265.719360 282.168182,264.825378 275.331512,263.971527 
	C268.635376,263.135223 261.934174,262.339722 254.448914,261.430847 
	C256.131805,258.752197 257.313782,256.870880 258.730164,254.705368 
z"/>
<path fill="#9179EE" opacity="1.000000" stroke="none" 
	d="
M271.459564,240.106659 
	C270.861877,239.914215 270.558533,239.692825 270.113220,239.226898 
	C270.816101,239.110489 271.660980,239.238602 272.710907,239.613953 
	C272.528625,239.933350 272.141266,240.005524 271.459564,240.106659 
z"/>
<path fill="#FBFBFC" opacity="1.000000" stroke="none" 
	d="
M764.602783,301.291077 
	C759.300903,294.335205 759.589233,286.983887 761.126282,279.237152 
	C763.834839,265.585968 778.571716,255.276489 792.056946,258.337311 
	C794.596680,258.913788 796.856018,261.131195 799.012329,262.878143 
	C801.182495,264.636292 803.085754,266.729523 805.059448,268.721924 
	C805.855835,269.525757 807.155151,270.445953 807.163391,271.323273 
	C807.282959,283.923706 809.460510,297.095551 796.492004,305.822540 
	C790.676147,309.736237 781.721619,312.767914 774.193298,308.045990 
	C770.983643,306.032837 767.944031,303.748566 764.602783,301.291077 
z"/>
<path fill="#FCFCFC" opacity="1.000000" stroke="none" 
	d="
M839.934082,277.277771 
	C843.591431,271.580139 846.807129,265.936157 851.020813,261.175446 
	C852.614441,259.375000 856.587463,259.832916 859.346741,258.885376 
	C871.276917,254.788544 877.644653,263.173065 884.714661,270.020569 
	C885.057190,270.352264 885.480896,270.831085 885.486389,271.246460 
	C885.656616,284.071167 887.620178,297.392303 874.369568,306.044678 
	C865.872131,311.593292 857.968506,312.315063 849.999084,306.468689 
	C847.138367,304.370117 844.282715,302.110870 841.968384,299.451752 
	C836.175659,292.795898 838.361572,285.160492 839.934082,277.277771 
z"/>
<path fill="#FEFEFE" opacity="1.000000" stroke="none" 
	d="
M946.456543,368.055206 
	C947.237244,368.158325 947.649048,368.268890 948.205872,368.666199 
	C946.509521,369.268066 944.668030,369.583191 942.425537,369.822449 
	C943.378845,369.185272 944.733276,368.623962 946.456543,368.055206 
z"/>
<path fill="#F6F6F6" opacity="1.000000" stroke="none" 
	d="
M476.860840,379.663391 
	C476.717072,379.940735 476.407928,380.003662 476.297058,380.115845 
	C474.237976,380.428314 472.245575,380.990509 470.350037,380.759033 
	C465.258942,380.137421 463.745880,376.610657 465.949097,370.404053 
	C467.570282,369.352936 469.054443,368.121765 470.535675,368.125336 
	C473.264313,368.131836 476.767181,368.011444 478.472687,369.563965 
	C479.831390,370.800812 478.995697,374.448181 479.006836,377.393494 
	C478.254547,378.303009 477.629578,378.844513 476.860840,379.663391 
z"/>
<path fill="#8F78EC" opacity="1.000000" stroke="none" 
	d="
M186.030533,220.467300 
	C197.904373,218.749588 206.030518,222.547546 212.055710,232.630844 
	C215.815292,238.922592 214.354767,246.416275 209.107193,251.544876 
	C202.474518,258.027130 193.450470,259.166168 185.545486,262.753784 
	C181.295334,264.682709 176.510849,265.434265 172.015137,266.703613 
	C167.788864,256.592926 171.097214,247.257797 171.494049,237.744232 
	C172.648499,237.401825 173.896973,237.612915 174.229523,237.156570 
	C178.241669,231.650665 182.118469,226.046127 186.030533,220.467300 
z"/>
<path fill="#8AC4FF" opacity="1.000000" stroke="none" 
	d="
M185.610809,220.441498 
	C182.118469,226.046127 178.241669,231.650665 174.229523,237.156570 
	C173.896973,237.612915 172.648499,237.401825 171.633484,237.318542 
	C171.441391,232.091736 171.441391,227.047211 171.441391,221.393417 
	C175.527863,221.102829 180.359467,220.759247 185.610809,220.441498 
z"/>
</svg>